<svg width="20" height="13" viewBox="0 0 20 13" fill="none" xmlns="http://www.w3.org/2000/svg">
<path d="M19.8438 13H0.15625C0.0699609 13 0 12.9315 0 12.847V0.152959C0 0.0684875 0.0699609 0 0.15625 0H19.8438C19.93 0 20 0.0684875 20 0.152959V12.847C20 12.9315 19.93 13 19.8438 13Z" fill="#4BA543"/>
<path d="M18.793 0V13H19.8439C19.9302 13 20.0002 12.9315 20.0002 12.847V0.152959C20.0002 0.0684875 19.9302 0 19.8439 0H18.793Z" fill="#43A047"/>
<path d="M2.73925 6.37454L9.91073 1.47919C9.96444 1.44252 10.0358 1.44252 10.0895 1.47919L17.261 6.37454C17.3501 6.43542 17.3501 6.56459 17.261 6.62547L10.0895 11.5208C10.0358 11.5575 9.96444 11.5575 9.91073 11.5208L2.73925 6.62547C2.65007 6.56459 2.65007 6.43542 2.73925 6.37454Z" fill="#FECE3F"/>
<path d="M9.99992 9.33633C11.6001 9.33633 12.8973 8.06644 12.8973 6.49996C12.8973 4.93349 11.6001 3.6636 9.99992 3.6636C8.39974 3.6636 7.10254 4.93349 7.10254 6.49996C7.10254 8.06644 8.39974 9.33633 9.99992 9.33633Z" fill="#2387EB"/>
<path d="M10.0001 3.6636C9.79309 3.6636 9.59125 3.68525 9.39648 3.72567C10.7069 3.99759 11.6902 5.13618 11.6902 6.49996C11.6902 7.86375 10.7068 9.00234 9.39648 9.27426C9.59125 9.31468 9.79305 9.33633 10.0001 9.33633C11.6003 9.33633 12.8975 8.06646 12.8975 6.49996C12.8975 4.93347 11.6003 3.6636 10.0001 3.6636Z" fill="#207BD6"/>
<path d="M7.15332 5.97424L12.7489 7.39683C12.8448 7.11489 12.8976 6.8136 12.8976 6.50007C12.8976 6.40206 12.8925 6.30524 12.8826 6.20979L7.62711 4.87366C7.39512 5.19743 7.23062 5.57069 7.15332 5.97424Z" fill="#EFEFEF"/>
<path d="M11.6226 7.11044L12.7487 7.39674C12.8446 7.1148 12.8973 6.81351 12.8973 6.49998C12.8973 6.40197 12.8922 6.30515 12.8823 6.2097L11.6226 5.8894C11.6667 6.08607 11.6901 6.29031 11.6901 6.49998C11.6901 6.70957 11.6667 6.91381 11.6226 7.11044Z" fill="#DCDCDC"/>
</svg>
