<svg width="88" height="76" viewBox="0 0 88 76" fill="none" xmlns="http://www.w3.org/2000/svg">
<rect width="76" height="76" rx="4" fill="#E8EFFD"/>
<path d="M50.5141 8.1979C38.7101 10.5017 29.198 19.99 26.8705 31.7583C22.4766 53.9649 42.5102 70.5189 57.6037 68.1795C62.4963 67.4195 64.8951 61.6956 62.6507 57.2899C59.9075 51.8986 63.8263 45.6047 69.8827 45.6047H79.3473C83.5987 45.6047 87.0425 42.0897 87.0544 37.8502C86.995 19.1349 69.9659 4.40971 50.5141 8.1979ZM37.6532 45.6047C35.5513 45.6047 33.8531 43.9066 33.8531 41.8047C33.8531 39.7028 35.5513 38.0046 37.6532 38.0046C39.7551 38.0046 41.4533 39.7028 41.4533 41.8047C41.4533 43.9066 39.7551 45.6047 37.6532 45.6047ZM41.4533 30.4045C39.3514 30.4045 37.6532 28.7063 37.6532 26.6044C37.6532 24.5025 39.3514 22.8044 41.4533 22.8044C43.5552 22.8044 45.2534 24.5025 45.2534 26.6044C45.2534 28.7063 43.5552 30.4045 41.4533 30.4045ZM56.6537 22.8044C54.5517 22.8044 52.8536 21.1062 52.8536 19.0043C52.8536 16.9024 54.5517 15.2043 56.6537 15.2043C58.7556 15.2043 60.4538 16.9024 60.4538 19.0043C60.4538 21.1062 58.7556 22.8044 56.6537 22.8044ZM71.854 30.4045C69.7521 30.4045 68.0539 28.7063 68.0539 26.6044C68.0539 24.5025 69.7521 22.8044 71.854 22.8044C73.956 22.8044 75.6541 24.5025 75.6541 26.6044C75.6541 28.7063 73.956 30.4045 71.854 30.4045Z" fill="#5B98F0"/>
</svg>
