<svg width="126" height="110" viewBox="0 0 126 110" fill="none" xmlns="http://www.w3.org/2000/svg">
<rect x="0.000244141" width="110" height="110" rx="4" fill="#E8EFFD"/>
<path d="M73.113 11.8654C56.0283 15.1998 42.2607 28.9329 38.8919 45.966C32.5324 78.1071 61.5284 102.067 83.3742 98.6809C90.4556 97.5808 93.9276 89.2963 90.6791 82.9197C86.7087 75.1164 92.3807 66.0069 101.147 66.0069H114.845C120.999 66.0069 125.983 60.9193 126 54.7833C125.914 27.6954 101.267 6.38251 73.113 11.8654ZM54.4985 66.0069C51.4563 66.0069 48.9984 63.549 48.9984 60.5068C48.9984 57.4646 51.4563 55.0067 54.4985 55.0067C57.5408 55.0067 59.9987 57.4646 59.9987 60.5068C59.9987 63.549 57.5408 66.0069 54.4985 66.0069ZM59.9987 44.0065C56.9564 44.0065 54.4985 41.5487 54.4985 38.5065C54.4985 35.4642 56.9564 33.0064 59.9987 33.0064C63.0409 33.0064 65.4988 35.4642 65.4988 38.5065C65.4988 41.5487 63.0409 44.0065 59.9987 44.0065ZM81.9992 33.0064C78.9569 33.0064 76.4991 30.5485 76.4991 27.5063C76.4991 24.4641 78.9569 22.0062 81.9992 22.0062C85.0415 22.0062 87.4993 24.4641 87.4993 27.5063C87.4993 30.5485 85.0415 33.0064 81.9992 33.0064ZM104 44.0065C100.957 44.0065 98.4996 41.5487 98.4996 38.5065C98.4996 35.4642 100.957 33.0064 104 33.0064C107.042 33.0064 109.5 35.4642 109.5 38.5065C109.5 41.5487 107.042 44.0065 104 44.0065Z" fill="#5B98F0"/>
</svg>
