<svg width="100" height="114" viewBox="0 0 100 114" fill="none" xmlns="http://www.w3.org/2000/svg">
<path d="M9.1022 102.608L0 0H100L90.8865 102.591L49.9379 114L9.1022 102.608Z" fill="#1572B6"/>
<path d="M50 105.281L83.0887 96.0576L90.8696 8.38928H50V105.281Z" fill="#33A9DC"/>
<path d="M50 45.5623H66.5669L67.7075 32.6775H50V20.0991H81.3947L81.0954 23.4764L78.0181 58.1577H50V45.5623Z" fill="white"/>
<path d="M50.0684 78.2458H50.0119L36.0706 74.4598L35.1785 64.4243H22.6206L24.3767 84.183L50.0232 91.3577H50.0966V78.2458H50.0684Z" fill="#EBEBEB"/>
<path d="M65.5057 57.6074L63.998 74.4485L50.0342 78.2345V91.3465L75.6977 84.1945L75.884 82.0659L78.0635 57.6017H65.5057V57.6074Z" fill="white"/>
<path d="M50.0459 20.0991V32.6831H19.8144L19.5546 29.8564L18.9843 23.4764L18.6851 20.0991H50.0459ZM50.0007 45.5623V58.1464H36.2175L35.9747 55.3196L35.4044 48.9396L35.1052 45.5623H49.9951H50.0007Z" fill="#EBEBEB"/>
</svg>
