<svg width="72" height="76" viewBox="0 0 72 76" fill="none" xmlns="http://www.w3.org/2000/svg">
<path d="M6.55359 68.4053L0 0H72L65.4383 68.3939L35.9553 76L6.55359 68.4053Z" fill="#1572B6"/>
<path d="M36 70.1876L59.8238 64.0384L65.4261 5.59283H36V70.1876Z" fill="#33A9DC"/>
<path d="M36 30.375H47.9282L48.7494 21.785H36V13.3995H58.6042L58.3887 15.651L56.173 38.7719H36V30.375Z" fill="white"/>
<path d="M36.0493 52.1638H36.0086L25.9709 49.6398L25.3285 42.9495H16.2869L17.5512 56.122L36.0167 60.9051H36.0696V52.1638H36.0493Z" fill="#EBEBEB"/>
<path d="M47.1641 38.4049L46.0786 49.6324L36.0247 52.1564V60.8976L54.5024 56.1297L54.6365 54.7106L56.2058 38.4011H47.1641V38.4049Z" fill="white"/>
<path d="M36.0332 13.3995V21.7888H14.2665L14.0795 19.9043L13.6688 15.651L13.4534 13.3995H36.0332ZM36.0006 30.375V38.7643H26.0767L25.9019 36.8798L25.4913 32.6265L25.2758 30.375H35.9966H36.0006Z" fill="#EBEBEB"/>
</svg>
