<svg width="76" height="76" viewBox="0 0 76 76" fill="none" xmlns="http://www.w3.org/2000/svg">
<path d="M65.6815 76H10.3185C4.64334 76 0 71.3567 0 65.6815V10.3185C0 4.64334 4.64334 0 10.3185 0H65.6815C71.3567 0 76 4.64334 76 10.3185V65.6815C76 71.3567 71.3567 76 65.6815 76Z" fill="#353535"/>
<path d="M30.0626 61.8118C34.448 61.8118 37.9999 58.2599 37.9999 53.8745V45.9371H30.0626C25.6772 45.9371 22.1252 49.4891 22.1252 53.8745C22.1252 58.2599 25.6772 61.8118 30.0626 61.8118Z" fill="#0ACF83"/>
<path d="M22.1252 37.9998C22.1252 33.6145 25.6772 30.0625 30.0626 30.0625H37.9999V45.9372H30.0626C25.6772 45.9372 22.1252 42.3852 22.1252 37.9998Z" fill="#A259FF"/>
<path d="M22.1252 22.1253C22.1252 17.7399 25.6772 14.188 30.0626 14.188H37.9999V30.0627H30.0626C25.6772 30.0627 22.1252 26.5107 22.1252 22.1253Z" fill="#F24E1E"/>
<path d="M38 14.1879H45.9373C50.3227 14.1879 53.8747 17.7398 53.8747 22.1252C53.8747 26.5106 50.3227 30.0625 45.9373 30.0625H38V14.1879Z" fill="#FF7262"/>
<path d="M53.8747 37.9998C53.8747 42.3852 50.3227 45.9372 45.9373 45.9372C41.552 45.9372 38 42.3852 38 37.9998C38 33.6145 41.552 30.0625 45.9373 30.0625C50.3227 30.0625 53.8747 33.6145 53.8747 37.9998Z" fill="#1ABCFE"/>
</svg>
