<svg width="85" height="76" viewBox="0 0 85 76" fill="none" xmlns="http://www.w3.org/2000/svg">
<rect width="76" height="76" rx="4" fill="#E8EFFD"/>
<path fill-rule="evenodd" clip-rule="evenodd" d="M65.4834 37.9999C65.4834 32.8598 69.6895 28.6855 74.887 28.6855C80.0843 28.6855 84.2905 32.8598 84.2905 37.9999C84.2905 43.1401 80.0843 47.3142 74.887 47.3142C69.6895 47.3142 65.4834 43.1401 65.4834 37.9999Z" fill="#5B98F0"/>
<path fill-rule="evenodd" clip-rule="evenodd" d="M45.5996 57.7038C45.5996 52.5638 49.8057 48.3895 55.0032 48.3895H64.4067V57.7038C64.4067 62.8441 60.2007 67.0182 55.0032 67.0182C49.8057 67.0182 45.5996 62.8441 45.5996 57.7038Z" fill="#5B98F0"/>
<path fill-rule="evenodd" clip-rule="evenodd" d="M55.0032 27.6104C49.8057 27.6104 45.5996 23.4363 45.5996 18.2961C45.5996 13.156 49.8057 8.98181 55.0032 8.98181H64.4067V27.6104H55.0032Z" fill="#5B98F0"/>
<path fill-rule="evenodd" clip-rule="evenodd" d="M55.0032 47.3142C49.8057 47.3142 45.5996 43.1401 45.5996 37.9999C45.5996 32.8598 49.8057 28.6855 55.0032 28.6855H64.4067V47.3142H55.0032Z" fill="#5B98F0"/>
<path fill-rule="evenodd" clip-rule="evenodd" d="M65.4834 27.6104V8.98181H74.887C80.0844 8.98181 84.2905 13.156 84.2905 18.2961C84.2905 23.4363 80.0845 27.6104 74.887 27.6104H65.4834Z" fill="#5B98F0"/>
</svg>
