<svg width="122" height="110" viewBox="0 0 122 110" fill="none" xmlns="http://www.w3.org/2000/svg">
<rect width="110" height="110" rx="4" fill="#E8EFFD"/>
<path fill-rule="evenodd" clip-rule="evenodd" d="M94.7793 54.9999C94.7793 47.5603 100.867 41.5187 108.39 41.5187C115.912 41.5187 122 47.5603 122 54.9999C122 62.4397 115.912 68.4812 108.39 68.4812C100.867 68.4812 94.7793 62.4397 94.7793 54.9999Z" fill="#5B98F0"/>
<path fill-rule="evenodd" clip-rule="evenodd" d="M66 83.5187C66 76.0791 72.0878 70.0375 79.6104 70.0375H93.2208V83.5187C93.2208 90.9585 87.1331 97 79.6104 97C72.0878 97 66 90.9585 66 83.5187Z" fill="#5B98F0"/>
<path fill-rule="evenodd" clip-rule="evenodd" d="M79.6104 39.9624C72.0878 39.9624 66 33.9209 66 26.4812C66 19.0415 72.0878 13 79.6104 13H93.2208V39.9624H79.6104Z" fill="#5B98F0"/>
<path fill-rule="evenodd" clip-rule="evenodd" d="M79.6104 68.4812C72.0878 68.4812 66 62.4397 66 54.9999C66 47.5603 72.0878 41.5187 79.6104 41.5187H93.2208V68.4812H79.6104Z" fill="#5B98F0"/>
<path fill-rule="evenodd" clip-rule="evenodd" d="M94.7793 39.9624V13H108.39C115.912 13 122 19.0415 122 26.4812C122 33.9209 115.912 39.9624 108.39 39.9624H94.7793Z" fill="#5B98F0"/>
</svg>
