<svg width="110" height="110" viewBox="0 0 110 110" fill="none" xmlns="http://www.w3.org/2000/svg">
<path d="M95.0653 110H14.9347C6.72063 110 0 103.279 0 95.0653V14.9347C0 6.72063 6.72063 0 14.9347 0H95.0653C103.279 0 110 6.72063 110 14.9347V95.0653C110 103.279 103.279 110 95.0653 110Z" fill="#353535"/>
<path d="M43.5117 89.4644C49.859 89.4644 54.9999 84.3234 54.9999 77.9762V66.4879H43.5117C37.1644 66.4879 32.0234 71.6289 32.0234 77.9762C32.0234 84.3234 37.1644 89.4644 43.5117 89.4644Z" fill="#0ACF83"/>
<path d="M32.0234 54.9997C32.0234 48.6525 37.1644 43.5115 43.5117 43.5115H54.9999V66.488H43.5117C37.1644 66.488 32.0234 61.347 32.0234 54.9997Z" fill="#A259FF"/>
<path d="M32.0234 32.0234C32.0234 25.6761 37.1644 20.5352 43.5117 20.5352H54.9999V43.5117H43.5117C37.1644 43.5117 32.0234 38.3707 32.0234 32.0234Z" fill="#F24E1E"/>
<path d="M55 20.535H66.4883C72.8355 20.535 77.9765 25.676 77.9765 32.0233C77.9765 38.3705 72.8355 43.5115 66.4883 43.5115H55V20.535Z" fill="#FF7262"/>
<path d="M77.9765 54.9997C77.9765 61.347 72.8355 66.488 66.4883 66.488C60.141 66.488 55 61.347 55 54.9997C55 48.6525 60.141 43.5115 66.4883 43.5115C72.8355 43.5115 77.9765 48.6525 77.9765 54.9997Z" fill="#1ABCFE"/>
</svg>
