<svg width="18" height="24" viewBox="0 0 18 24" fill="none" xmlns="http://www.w3.org/2000/svg">
<path d="M10.5 6.375V0H1.125C0.46875 0 0 0.515625 0 1.125V22.875C0 23.5312 0.46875 24 1.125 24H16.875C17.4844 24 18 23.5312 18 22.875V7.5H11.625C10.9688 7.5 10.5 7.03125 10.5 6.375ZM14.25 19.2188V20.1094C14.25 20.625 13.7344 21 13.1719 21H4.78125C4.21875 21 3.75 20.625 3.75 20.1094V19.2188C3.75 17.7188 5.15625 16.5 6.89062 16.5H7.125C7.6875 16.7812 8.29688 16.875 9 16.875C9.65625 16.875 10.2656 16.7812 10.8281 16.5H11.0625C12.7969 16.5 14.25 17.7188 14.25 19.2188ZM9 15C7.3125 15 6 13.6875 6 12C6 10.3594 7.3125 9 9 9C10.6406 9 12 10.3594 12 12C12 13.6875 10.6406 15 9 15ZM17.6719 4.92188L13.0781 0.328125C12.8438 0.140625 12.5625 0 12.2812 0H12V6H18V5.71875C18 5.4375 17.8594 5.15625 17.6719 4.92188Z" fill="#004DBB"/>
</svg>
