<svg width="266" height="40" viewBox="0 0 266 40" fill="none" xmlns="http://www.w3.org/2000/svg">
<path d="M4.56 15.64H0.08V13H12.28V15.64H7.8V27H4.56V15.64ZM24.4089 16.24V27H21.4489V25.72C21.0356 26.1867 20.5422 26.5467 19.9689 26.8C19.3956 27.04 18.7756 27.16 18.1089 27.16C16.6956 27.16 15.5756 26.7533 14.7489 25.94C13.9222 25.1267 13.5089 23.92 13.5089 22.32V16.24H16.6289V21.86C16.6289 23.5933 17.3556 24.46 18.8089 24.46C19.5556 24.46 20.1556 24.22 20.6089 23.74C21.0622 23.2467 21.2889 22.52 21.2889 21.56V16.24H24.4089ZM19.8289 11.98H23.1889L19.5689 14.86H17.1289L19.8289 11.98ZM27.2994 12.16H30.4194V27H27.2994V12.16ZM33.315 16.24H36.435V27H33.315V16.24ZM34.875 14.74C34.3017 14.74 33.835 14.5733 33.475 14.24C33.115 13.9067 32.935 13.4933 32.935 13C32.935 12.5067 33.115 12.0933 33.475 11.76C33.835 11.4267 34.3017 11.26 34.875 11.26C35.4483 11.26 35.915 11.42 36.275 11.74C36.635 12.06 36.815 12.46 36.815 12.94C36.815 13.46 36.635 13.8933 36.275 14.24C35.915 14.5733 35.4483 14.74 34.875 14.74ZM44.4506 27.16C43.3173 27.16 42.2973 26.9267 41.3906 26.46C40.4973 25.98 39.7973 25.32 39.2906 24.48C38.784 23.64 38.5306 22.6867 38.5306 21.62C38.5306 20.5533 38.784 19.6 39.2906 18.76C39.7973 17.92 40.4973 17.2667 41.3906 16.8C42.2973 16.32 43.3173 16.08 44.4506 16.08C45.584 16.08 46.5973 16.32 47.4906 16.8C48.384 17.2667 49.084 17.92 49.5906 18.76C50.0973 19.6 50.3506 20.5533 50.3506 21.62C50.3506 22.6867 50.0973 23.64 49.5906 24.48C49.084 25.32 48.384 25.98 47.4906 26.46C46.5973 26.9267 45.584 27.16 44.4506 27.16ZM44.4506 24.6C45.2506 24.6 45.904 24.3333 46.4106 23.8C46.9306 23.2533 47.1906 22.5267 47.1906 21.62C47.1906 20.7133 46.9306 19.9933 46.4106 19.46C45.904 18.9133 45.2506 18.64 44.4506 18.64C43.6506 18.64 42.9906 18.9133 42.4706 19.46C41.9506 19.9933 41.6906 20.7133 41.6906 21.62C41.6906 22.5267 41.9506 23.2533 42.4706 23.8C42.9906 24.3333 43.6506 24.6 44.4506 24.6ZM65.0202 27.24C63.5935 27.24 62.3002 26.9333 61.1402 26.32C59.9935 25.6933 59.0868 24.8333 58.4202 23.74C57.7668 22.6333 57.4402 21.3867 57.4402 20C57.4402 18.6133 57.7668 17.3733 58.4202 16.28C59.0868 15.1733 59.9935 14.3133 61.1402 13.7C62.3002 13.0733 63.6002 12.76 65.0402 12.76C66.2535 12.76 67.3468 12.9733 68.3202 13.4C69.3068 13.8267 70.1335 14.44 70.8002 15.24L68.7202 17.16C67.7735 16.0667 66.6002 15.52 65.2002 15.52C64.3335 15.52 63.5602 15.7133 62.8802 16.1C62.2002 16.4733 61.6668 17 61.2802 17.68C60.9068 18.36 60.7202 19.1333 60.7202 20C60.7202 20.8667 60.9068 21.64 61.2802 22.32C61.6668 23 62.2002 23.5333 62.8802 23.92C63.5602 24.2933 64.3335 24.48 65.2002 24.48C66.6002 24.48 67.7735 23.9267 68.7202 22.82L70.8002 24.74C70.1335 25.5533 69.3068 26.1733 68.3202 26.6C67.3335 27.0267 66.2335 27.24 65.0202 27.24ZM79.3081 16.08C80.6415 16.08 81.7148 16.48 82.5281 17.28C83.3548 18.08 83.7681 19.2667 83.7681 20.84V27H80.6481V21.32C80.6481 20.4667 80.4615 19.8333 80.0881 19.42C79.7148 18.9933 79.1748 18.78 78.4681 18.78C77.6815 18.78 77.0548 19.0267 76.5881 19.52C76.1215 20 75.8881 20.72 75.8881 21.68V27H72.7681V12.16H75.8881V17.36C76.3015 16.9467 76.8015 16.6333 77.3881 16.42C77.9748 16.1933 78.6148 16.08 79.3081 16.08ZM90.9363 16.08C92.6029 16.08 93.8829 16.48 94.7763 17.28C95.6696 18.0667 96.1163 19.26 96.1163 20.86V27H93.1963V25.66C92.6096 26.66 91.5163 27.16 89.9163 27.16C89.0896 27.16 88.3696 27.02 87.7563 26.74C87.1563 26.46 86.6963 26.0733 86.3763 25.58C86.0563 25.0867 85.8963 24.5267 85.8963 23.9C85.8963 22.9 86.2696 22.1133 87.0163 21.54C87.7763 20.9667 88.9429 20.68 90.5163 20.68H92.9963C92.9963 20 92.7896 19.48 92.3763 19.12C91.9629 18.7467 91.3429 18.56 90.5163 18.56C89.9429 18.56 89.3763 18.6533 88.8163 18.84C88.2696 19.0133 87.8029 19.2533 87.4163 19.56L86.2963 17.38C86.8829 16.9667 87.5829 16.6467 88.3963 16.42C89.2229 16.1933 90.0696 16.08 90.9363 16.08ZM90.6963 25.06C91.2296 25.06 91.7029 24.94 92.1163 24.7C92.5296 24.4467 92.8229 24.08 92.9963 23.6V22.5H90.8563C89.5763 22.5 88.9363 22.92 88.9363 23.76C88.9363 24.16 89.0896 24.48 89.3963 24.72C89.7163 24.9467 90.1496 25.06 90.6963 25.06ZM109.425 16.24L104.885 27H101.665L97.1447 16.24H100.365L103.345 23.56L106.425 16.24H109.425ZM120.945 21.66C120.945 21.7 120.925 21.98 120.885 22.5H112.745C112.892 23.1667 113.238 23.6933 113.785 24.08C114.332 24.4667 115.012 24.66 115.825 24.66C116.385 24.66 116.878 24.58 117.305 24.42C117.745 24.2467 118.152 23.98 118.525 23.62L120.185 25.42C119.172 26.58 117.692 27.16 115.745 27.16C114.532 27.16 113.458 26.9267 112.525 26.46C111.592 25.98 110.872 25.32 110.365 24.48C109.858 23.64 109.605 22.6867 109.605 21.62C109.605 20.5667 109.852 19.62 110.345 18.78C110.852 17.9267 111.538 17.2667 112.405 16.8C113.285 16.32 114.265 16.08 115.345 16.08C116.398 16.08 117.352 16.3067 118.205 16.76C119.058 17.2133 119.725 17.8667 120.205 18.72C120.698 19.56 120.945 20.54 120.945 21.66ZM115.365 18.44C114.658 18.44 114.065 18.64 113.585 19.04C113.105 19.44 112.812 19.9867 112.705 20.68H118.005C117.898 20 117.605 19.46 117.125 19.06C116.645 18.6467 116.058 18.44 115.365 18.44ZM126.642 27.16C125.749 27.16 124.875 27.0533 124.022 26.84C123.169 26.6133 122.489 26.3333 121.982 26L123.022 23.76C123.502 24.0667 124.082 24.32 124.762 24.52C125.442 24.7067 126.109 24.8 126.762 24.8C128.082 24.8 128.742 24.4733 128.742 23.82C128.742 23.5133 128.562 23.2933 128.202 23.16C127.842 23.0267 127.289 22.9133 126.542 22.82C125.662 22.6867 124.935 22.5333 124.362 22.36C123.789 22.1867 123.289 21.88 122.862 21.44C122.449 21 122.242 20.3733 122.242 19.56C122.242 18.88 122.435 18.28 122.822 17.76C123.222 17.2267 123.795 16.8133 124.542 16.52C125.302 16.2267 126.195 16.08 127.222 16.08C127.982 16.08 128.735 16.1667 129.482 16.34C130.242 16.5 130.869 16.7267 131.362 17.02L130.322 19.24C129.375 18.7067 128.342 18.44 127.222 18.44C126.555 18.44 126.055 18.5333 125.722 18.72C125.389 18.9067 125.222 19.1467 125.222 19.44C125.222 19.7733 125.402 20.0067 125.762 20.14C126.122 20.2733 126.695 20.4 127.482 20.52C128.362 20.6667 129.082 20.8267 129.642 21C130.202 21.16 130.689 21.46 131.102 21.9C131.515 22.34 131.722 22.9533 131.722 23.74C131.722 24.4067 131.522 25 131.122 25.52C130.722 26.04 130.135 26.4467 129.362 26.74C128.602 27.02 127.695 27.16 126.642 27.16Z" fill="#00183A"/>
<path d="M155.174 15H154.178V6.43359H158.953V7.31836H155.174V10.4531H158.725V11.3379H155.174V15ZM163.16 8.46094C163.445 8.46094 163.701 8.48438 163.928 8.53125L163.793 9.43359C163.527 9.375 163.293 9.3457 163.09 9.3457C162.57 9.3457 162.125 9.55664 161.754 9.97852C161.387 10.4004 161.203 10.9258 161.203 11.5547V15H160.23V8.57812H161.033L161.145 9.76758H161.191C161.43 9.34961 161.717 9.02734 162.053 8.80078C162.389 8.57422 162.758 8.46094 163.16 8.46094ZM170.672 11.7832C170.672 12.8301 170.408 13.6484 169.881 14.2383C169.354 14.8242 168.625 15.1172 167.695 15.1172C167.121 15.1172 166.611 14.9824 166.166 14.7129C165.721 14.4434 165.377 14.0566 165.135 13.5527C164.893 13.0488 164.771 12.459 164.771 11.7832C164.771 10.7363 165.033 9.92188 165.557 9.33984C166.08 8.75391 166.807 8.46094 167.736 8.46094C168.635 8.46094 169.348 8.75977 169.875 9.35742C170.406 9.95508 170.672 10.7637 170.672 11.7832ZM165.779 11.7832C165.779 12.6035 165.943 13.2285 166.271 13.6582C166.6 14.0879 167.082 14.3027 167.719 14.3027C168.355 14.3027 168.838 14.0898 169.166 13.6641C169.498 13.2344 169.664 12.6074 169.664 11.7832C169.664 10.9668 169.498 10.3477 169.166 9.92578C168.838 9.5 168.352 9.28711 167.707 9.28711C167.07 9.28711 166.59 9.49609 166.266 9.91406C165.941 10.332 165.779 10.9551 165.779 11.7832ZM176.777 15V10.8457C176.777 10.3223 176.658 9.93164 176.42 9.67383C176.182 9.41602 175.809 9.28711 175.301 9.28711C174.629 9.28711 174.137 9.46875 173.824 9.83203C173.512 10.1953 173.355 10.7949 173.355 11.6309V15H172.383V8.57812H173.174L173.332 9.45703H173.379C173.578 9.14062 173.857 8.89648 174.217 8.72461C174.576 8.54883 174.977 8.46094 175.418 8.46094C176.191 8.46094 176.773 8.64844 177.164 9.02344C177.555 9.39453 177.75 9.99023 177.75 10.8105V15H176.777ZM181.828 14.3145C182 14.3145 182.166 14.3027 182.326 14.2793C182.486 14.252 182.613 14.2246 182.707 14.1973V14.9414C182.602 14.9922 182.445 15.0332 182.238 15.0645C182.035 15.0996 181.852 15.1172 181.688 15.1172C180.445 15.1172 179.824 14.4629 179.824 13.1543V9.33398H178.904V8.86523L179.824 8.46094L180.234 7.08984H180.797V8.57812H182.66V9.33398H180.797V13.1133C180.797 13.5 180.889 13.7969 181.072 14.0039C181.256 14.2109 181.508 14.3145 181.828 14.3145ZM188.918 15H184.143V6.43359H188.918V7.31836H185.139V10.0781H188.689V10.957H185.139V14.1094H188.918V15ZM195.07 15V10.8457C195.07 10.3223 194.951 9.93164 194.713 9.67383C194.475 9.41602 194.102 9.28711 193.594 9.28711C192.922 9.28711 192.43 9.46875 192.117 9.83203C191.805 10.1953 191.648 10.7949 191.648 11.6309V15H190.676V8.57812H191.467L191.625 9.45703H191.672C191.871 9.14062 192.15 8.89648 192.51 8.72461C192.869 8.54883 193.27 8.46094 193.711 8.46094C194.484 8.46094 195.066 8.64844 195.457 9.02344C195.848 9.39453 196.043 9.99023 196.043 10.8105V15H195.07ZM202.418 14.1387H202.365C201.916 14.791 201.244 15.1172 200.35 15.1172C199.51 15.1172 198.855 14.8301 198.387 14.2559C197.922 13.6816 197.689 12.8652 197.689 11.8066C197.689 10.748 197.924 9.92578 198.393 9.33984C198.861 8.75391 199.514 8.46094 200.35 8.46094C201.221 8.46094 201.889 8.77734 202.354 9.41016H202.43L202.389 8.94727L202.365 8.49609V5.88281H203.338V15H202.547L202.418 14.1387ZM200.473 14.3027C201.137 14.3027 201.617 14.123 201.914 13.7637C202.215 13.4004 202.365 12.8164 202.365 12.0117V11.8066C202.365 10.8965 202.213 10.248 201.908 9.86133C201.607 9.4707 201.125 9.27539 200.461 9.27539C199.891 9.27539 199.453 9.49805 199.148 9.94336C198.848 10.3848 198.697 11.0098 198.697 11.8184C198.697 12.6387 198.848 13.2578 199.148 13.6758C199.449 14.0938 199.891 14.3027 200.473 14.3027ZM215.508 10.6348C215.508 12.0488 215.123 13.1309 214.354 13.8809C213.588 14.627 212.484 15 211.043 15H208.67V6.43359H211.295C212.627 6.43359 213.662 6.80273 214.4 7.54102C215.139 8.2793 215.508 9.31055 215.508 10.6348ZM214.453 10.6699C214.453 9.55273 214.172 8.71094 213.609 8.14453C213.051 7.57812 212.219 7.29492 211.113 7.29492H209.666V14.1387H210.879C212.066 14.1387 212.959 13.8477 213.557 13.2656C214.154 12.6797 214.453 11.8145 214.453 10.6699ZM219.99 15.1172C219.041 15.1172 218.291 14.8281 217.74 14.25C217.193 13.6719 216.92 12.8691 216.92 11.8418C216.92 10.8066 217.174 9.98438 217.682 9.375C218.193 8.76562 218.879 8.46094 219.738 8.46094C220.543 8.46094 221.18 8.72656 221.648 9.25781C222.117 9.78516 222.352 10.4824 222.352 11.3496V11.9648H217.928C217.947 12.7188 218.137 13.291 218.496 13.6816C218.859 14.0723 219.369 14.2676 220.025 14.2676C220.717 14.2676 221.4 14.123 222.076 13.834V14.7012C221.732 14.8496 221.406 14.9551 221.098 15.0176C220.793 15.084 220.424 15.1172 219.99 15.1172ZM219.727 9.27539C219.211 9.27539 218.799 9.44336 218.49 9.7793C218.186 10.1152 218.006 10.5801 217.951 11.1738H221.309C221.309 10.5605 221.172 10.0918 220.898 9.76758C220.625 9.43945 220.234 9.27539 219.727 9.27539ZM225.422 15L222.984 8.57812H224.027L225.41 12.3867C225.723 13.2773 225.906 13.8555 225.961 14.1211H226.008C226.051 13.9141 226.186 13.4863 226.412 12.8379C226.643 12.1855 227.156 10.7656 227.953 8.57812H228.996L226.559 15H225.422ZM232.74 15.1172C231.791 15.1172 231.041 14.8281 230.49 14.25C229.943 13.6719 229.67 12.8691 229.67 11.8418C229.67 10.8066 229.924 9.98438 230.432 9.375C230.943 8.76562 231.629 8.46094 232.488 8.46094C233.293 8.46094 233.93 8.72656 234.398 9.25781C234.867 9.78516 235.102 10.4824 235.102 11.3496V11.9648H230.678C230.697 12.7188 230.887 13.291 231.246 13.6816C231.609 14.0723 232.119 14.2676 232.775 14.2676C233.467 14.2676 234.15 14.123 234.826 13.834V14.7012C234.482 14.8496 234.156 14.9551 233.848 15.0176C233.543 15.084 233.174 15.1172 232.74 15.1172ZM232.477 9.27539C231.961 9.27539 231.549 9.44336 231.24 9.7793C230.936 10.1152 230.756 10.5801 230.701 11.1738H234.059C234.059 10.5605 233.922 10.0918 233.648 9.76758C233.375 9.43945 232.984 9.27539 232.477 9.27539ZM237.738 15H236.766V5.88281H237.738V15ZM245.344 11.7832C245.344 12.8301 245.08 13.6484 244.553 14.2383C244.025 14.8242 243.297 15.1172 242.367 15.1172C241.793 15.1172 241.283 14.9824 240.838 14.7129C240.393 14.4434 240.049 14.0566 239.807 13.5527C239.564 13.0488 239.443 12.459 239.443 11.7832C239.443 10.7363 239.705 9.92188 240.229 9.33984C240.752 8.75391 241.479 8.46094 242.408 8.46094C243.307 8.46094 244.02 8.75977 244.547 9.35742C245.078 9.95508 245.344 10.7637 245.344 11.7832ZM240.451 11.7832C240.451 12.6035 240.615 13.2285 240.943 13.6582C241.271 14.0879 241.754 14.3027 242.391 14.3027C243.027 14.3027 243.51 14.0898 243.838 13.6641C244.17 13.2344 244.336 12.6074 244.336 11.7832C244.336 10.9668 244.17 10.3477 243.838 9.92578C243.51 9.5 243.023 9.28711 242.379 9.28711C241.742 9.28711 241.262 9.49609 240.938 9.91406C240.613 10.332 240.451 10.9551 240.451 11.7832ZM250.043 15.1172C249.625 15.1172 249.242 15.041 248.895 14.8887C248.551 14.7324 248.262 14.4941 248.027 14.1738H247.957C248.004 14.5488 248.027 14.9043 248.027 15.2402V17.8828H247.055V8.57812H247.846L247.98 9.45703H248.027C248.277 9.10547 248.568 8.85156 248.9 8.69531C249.232 8.53906 249.613 8.46094 250.043 8.46094C250.895 8.46094 251.551 8.75195 252.012 9.33398C252.477 9.91602 252.709 10.7324 252.709 11.7832C252.709 12.8379 252.473 13.6582 252 14.2441C251.531 14.8262 250.879 15.1172 250.043 15.1172ZM249.902 9.28711C249.246 9.28711 248.771 9.46875 248.479 9.83203C248.186 10.1953 248.035 10.7734 248.027 11.5664V11.7832C248.027 12.6855 248.178 13.332 248.479 13.7227C248.779 14.1094 249.262 14.3027 249.926 14.3027C250.48 14.3027 250.914 14.0781 251.227 13.6289C251.543 13.1797 251.701 12.5605 251.701 11.7715C251.701 10.9707 251.543 10.3574 251.227 9.93164C250.914 9.50195 250.473 9.28711 249.902 9.28711ZM257.127 15.1172C256.178 15.1172 255.428 14.8281 254.877 14.25C254.33 13.6719 254.057 12.8691 254.057 11.8418C254.057 10.8066 254.311 9.98438 254.818 9.375C255.33 8.76562 256.016 8.46094 256.875 8.46094C257.68 8.46094 258.316 8.72656 258.785 9.25781C259.254 9.78516 259.488 10.4824 259.488 11.3496V11.9648H255.064C255.084 12.7188 255.273 13.291 255.633 13.6816C255.996 14.0723 256.506 14.2676 257.162 14.2676C257.854 14.2676 258.537 14.123 259.213 13.834V14.7012C258.869 14.8496 258.543 14.9551 258.234 15.0176C257.93 15.084 257.561 15.1172 257.127 15.1172ZM256.863 9.27539C256.348 9.27539 255.936 9.44336 255.627 9.7793C255.322 10.1152 255.143 10.5801 255.088 11.1738H258.445C258.445 10.5605 258.309 10.0918 258.035 9.76758C257.762 9.43945 257.371 9.27539 256.863 9.27539ZM264.082 8.46094C264.367 8.46094 264.623 8.48438 264.85 8.53125L264.715 9.43359C264.449 9.375 264.215 9.3457 264.012 9.3457C263.492 9.3457 263.047 9.55664 262.676 9.97852C262.309 10.4004 262.125 10.9258 262.125 11.5547V15H261.152V8.57812H261.955L262.066 9.76758H262.113C262.352 9.34961 262.639 9.02734 262.975 8.80078C263.311 8.57422 263.68 8.46094 264.082 8.46094Z" fill="#00183A"/>
<path d="M161.654 35H160.67L158.941 29.2637C158.859 29.0098 158.768 28.6895 158.666 28.3027C158.564 27.916 158.512 27.6836 158.508 27.6055C158.422 28.1211 158.285 28.6855 158.098 29.2988L156.422 35H155.438L153.158 26.4336H154.213L155.566 31.7246C155.754 32.4668 155.891 33.1387 155.977 33.7402C156.082 33.0254 156.238 32.3262 156.445 31.6426L157.98 26.4336H159.035L160.646 31.6895C160.834 32.2949 160.992 32.9785 161.121 33.7402C161.195 33.1855 161.336 32.5098 161.543 31.7129L162.891 26.4336H163.945L161.654 35ZM167.854 35.1172C166.904 35.1172 166.154 34.8281 165.604 34.25C165.057 33.6719 164.783 32.8691 164.783 31.8418C164.783 30.8066 165.037 29.9844 165.545 29.375C166.057 28.7656 166.742 28.4609 167.602 28.4609C168.406 28.4609 169.043 28.7266 169.512 29.2578C169.98 29.7852 170.215 30.4824 170.215 31.3496V31.9648H165.791C165.811 32.7188 166 33.291 166.359 33.6816C166.723 34.0723 167.232 34.2676 167.889 34.2676C168.58 34.2676 169.264 34.123 169.939 33.834V34.7012C169.596 34.8496 169.27 34.9551 168.961 35.0176C168.656 35.084 168.287 35.1172 167.854 35.1172ZM167.59 29.2754C167.074 29.2754 166.662 29.4434 166.354 29.7793C166.049 30.1152 165.869 30.5801 165.814 31.1738H169.172C169.172 30.5605 169.035 30.0918 168.762 29.7676C168.488 29.4395 168.098 29.2754 167.59 29.2754ZM174.867 28.4727C175.711 28.4727 176.365 28.7617 176.83 29.3398C177.299 29.9141 177.533 30.7285 177.533 31.7832C177.533 32.8379 177.297 33.6582 176.824 34.2441C176.355 34.8262 175.703 35.1172 174.867 35.1172C174.449 35.1172 174.066 35.041 173.719 34.8887C173.375 34.7324 173.086 34.4941 172.852 34.1738H172.781L172.576 35H171.879V25.8828H172.852V28.0977C172.852 28.5938 172.836 29.0391 172.805 29.4336H172.852C173.305 28.793 173.977 28.4727 174.867 28.4727ZM174.727 29.2871C174.062 29.2871 173.584 29.4785 173.291 29.8613C172.998 30.2402 172.852 30.8809 172.852 31.7832C172.852 32.6855 173.002 33.332 173.303 33.7227C173.604 34.1094 174.086 34.3027 174.75 34.3027C175.348 34.3027 175.793 34.0859 176.086 33.6523C176.379 33.2148 176.525 32.5879 176.525 31.7715C176.525 30.9355 176.379 30.3125 176.086 29.9023C175.793 29.4922 175.34 29.2871 174.727 29.2871ZM189.34 30.6348C189.34 32.0488 188.955 33.1309 188.186 33.8809C187.42 34.627 186.316 35 184.875 35H182.502V26.4336H185.127C186.459 26.4336 187.494 26.8027 188.232 27.541C188.971 28.2793 189.34 29.3105 189.34 30.6348ZM188.285 30.6699C188.285 29.5527 188.004 28.7109 187.441 28.1445C186.883 27.5781 186.051 27.2949 184.945 27.2949H183.498V34.1387H184.711C185.898 34.1387 186.791 33.8477 187.389 33.2656C187.986 32.6797 188.285 31.8145 188.285 30.6699ZM193.822 35.1172C192.873 35.1172 192.123 34.8281 191.572 34.25C191.025 33.6719 190.752 32.8691 190.752 31.8418C190.752 30.8066 191.006 29.9844 191.514 29.375C192.025 28.7656 192.711 28.4609 193.57 28.4609C194.375 28.4609 195.012 28.7266 195.48 29.2578C195.949 29.7852 196.184 30.4824 196.184 31.3496V31.9648H191.76C191.779 32.7188 191.969 33.291 192.328 33.6816C192.691 34.0723 193.201 34.2676 193.857 34.2676C194.549 34.2676 195.232 34.123 195.908 33.834V34.7012C195.564 34.8496 195.238 34.9551 194.93 35.0176C194.625 35.084 194.256 35.1172 193.822 35.1172ZM193.559 29.2754C193.043 29.2754 192.631 29.4434 192.322 29.7793C192.018 30.1152 191.838 30.5801 191.783 31.1738H195.141C195.141 30.5605 195.004 30.0918 194.73 29.7676C194.457 29.4395 194.066 29.2754 193.559 29.2754ZM201.99 33.248C201.99 33.8457 201.768 34.3066 201.322 34.6309C200.877 34.9551 200.252 35.1172 199.447 35.1172C198.596 35.1172 197.932 34.9824 197.455 34.7129V33.8105C197.764 33.9668 198.094 34.0898 198.445 34.1797C198.801 34.2695 199.143 34.3145 199.471 34.3145C199.979 34.3145 200.369 34.2344 200.643 34.0742C200.916 33.9102 201.053 33.6621 201.053 33.3301C201.053 33.0801 200.943 32.8672 200.725 32.6914C200.51 32.5117 200.088 32.3008 199.459 32.0586C198.861 31.8359 198.436 31.6426 198.182 31.4785C197.932 31.3105 197.744 31.1211 197.619 30.9102C197.498 30.6992 197.438 30.4473 197.438 30.1543C197.438 29.6309 197.65 29.2188 198.076 28.918C198.502 28.6133 199.086 28.4609 199.828 28.4609C200.52 28.4609 201.195 28.6016 201.855 28.8828L201.51 29.6738C200.865 29.4082 200.281 29.2754 199.758 29.2754C199.297 29.2754 198.949 29.3477 198.715 29.4922C198.48 29.6367 198.363 29.8359 198.363 30.0898C198.363 30.2617 198.406 30.4082 198.492 30.5293C198.582 30.6504 198.725 30.7656 198.92 30.875C199.115 30.9844 199.49 31.1426 200.045 31.3496C200.807 31.627 201.32 31.9062 201.586 32.1875C201.855 32.4688 201.99 32.8223 201.99 33.248ZM204.551 35H203.578V28.5781H204.551V35ZM203.496 26.8379C203.496 26.6152 203.551 26.4531 203.66 26.3516C203.77 26.2461 203.906 26.1934 204.07 26.1934C204.227 26.1934 204.361 26.2461 204.475 26.3516C204.588 26.457 204.645 26.6191 204.645 26.8379C204.645 27.0566 204.588 27.2207 204.475 27.3301C204.361 27.4355 204.227 27.4883 204.07 27.4883C203.906 27.4883 203.77 27.4355 203.66 27.3301C203.551 27.2207 203.496 27.0566 203.496 26.8379ZM211.869 28.5781V29.1934L210.68 29.334C210.789 29.4707 210.887 29.6504 210.973 29.873C211.059 30.0918 211.102 30.3398 211.102 30.6172C211.102 31.2461 210.887 31.748 210.457 32.123C210.027 32.498 209.438 32.6855 208.688 32.6855C208.496 32.6855 208.316 32.6699 208.148 32.6387C207.734 32.8574 207.527 33.1328 207.527 33.4648C207.527 33.6406 207.6 33.7715 207.744 33.8574C207.889 33.9395 208.137 33.9805 208.488 33.9805H209.625C210.32 33.9805 210.854 34.127 211.225 34.4199C211.6 34.7129 211.787 35.1387 211.787 35.6973C211.787 36.4082 211.502 36.9492 210.932 37.3203C210.361 37.6953 209.529 37.8828 208.436 37.8828C207.596 37.8828 206.947 37.7266 206.49 37.4141C206.037 37.1016 205.811 36.6602 205.811 36.0898C205.811 35.6992 205.936 35.3613 206.186 35.0762C206.436 34.791 206.787 34.5977 207.24 34.4961C207.076 34.4219 206.938 34.3066 206.824 34.1504C206.715 33.9941 206.66 33.8125 206.66 33.6055C206.66 33.3711 206.723 33.166 206.848 32.9902C206.973 32.8145 207.17 32.6445 207.439 32.4805C207.107 32.3438 206.836 32.1113 206.625 31.7832C206.418 31.4551 206.314 31.0801 206.314 30.6582C206.314 29.9551 206.525 29.4141 206.947 29.0352C207.369 28.6523 207.967 28.4609 208.74 28.4609C209.076 28.4609 209.379 28.5 209.648 28.5781H211.869ZM206.748 36.0781C206.748 36.4258 206.895 36.6895 207.188 36.8691C207.48 37.0488 207.9 37.1387 208.447 37.1387C209.264 37.1387 209.867 37.0156 210.258 36.7695C210.652 36.5273 210.85 36.1973 210.85 35.7793C210.85 35.4316 210.742 35.1895 210.527 35.0527C210.312 34.9199 209.908 34.8535 209.314 34.8535H208.148C207.707 34.8535 207.363 34.959 207.117 35.1699C206.871 35.3809 206.748 35.6836 206.748 36.0781ZM207.275 30.6348C207.275 31.084 207.402 31.4238 207.656 31.6543C207.91 31.8848 208.264 32 208.717 32C209.666 32 210.141 31.5391 210.141 30.6172C210.141 29.6523 209.66 29.1699 208.699 29.1699C208.242 29.1699 207.891 29.293 207.645 29.5391C207.398 29.7852 207.275 30.1504 207.275 30.6348ZM217.582 35V30.8457C217.582 30.3223 217.463 29.9316 217.225 29.6738C216.986 29.416 216.613 29.2871 216.105 29.2871C215.434 29.2871 214.941 29.4688 214.629 29.832C214.316 30.1953 214.16 30.7949 214.16 31.6309V35H213.188V28.5781H213.979L214.137 29.457H214.184C214.383 29.1406 214.662 28.8965 215.021 28.7246C215.381 28.5488 215.781 28.4609 216.223 28.4609C216.996 28.4609 217.578 28.6484 217.969 29.0234C218.359 29.3945 218.555 29.9902 218.555 30.8105V35H217.582ZM223.271 35.1172C222.322 35.1172 221.572 34.8281 221.021 34.25C220.475 33.6719 220.201 32.8691 220.201 31.8418C220.201 30.8066 220.455 29.9844 220.963 29.375C221.475 28.7656 222.16 28.4609 223.02 28.4609C223.824 28.4609 224.461 28.7266 224.93 29.2578C225.398 29.7852 225.633 30.4824 225.633 31.3496V31.9648H221.209C221.229 32.7188 221.418 33.291 221.777 33.6816C222.141 34.0723 222.65 34.2676 223.307 34.2676C223.998 34.2676 224.682 34.123 225.357 33.834V34.7012C225.014 34.8496 224.688 34.9551 224.379 35.0176C224.074 35.084 223.705 35.1172 223.271 35.1172ZM223.008 29.2754C222.492 29.2754 222.08 29.4434 221.771 29.7793C221.467 30.1152 221.287 30.5801 221.232 31.1738H224.59C224.59 30.5605 224.453 30.0918 224.18 29.7676C223.906 29.4395 223.516 29.2754 223.008 29.2754ZM230.227 28.4609C230.512 28.4609 230.768 28.4844 230.994 28.5312L230.859 29.4336C230.594 29.375 230.359 29.3457 230.156 29.3457C229.637 29.3457 229.191 29.5566 228.82 29.9785C228.453 30.4004 228.27 30.9258 228.27 31.5547V35H227.297V28.5781H228.1L228.211 29.7676H228.258C228.496 29.3496 228.783 29.0273 229.119 28.8008C229.455 28.5742 229.824 28.4609 230.227 28.4609Z" fill="#00183A"/>
<rect x="141" y="4" width="4" height="32" fill="#004DBB"/>
</svg>
