<svg width="113" height="53" viewBox="0 0 113 53" fill="none" xmlns="http://www.w3.org/2000/svg">
<path d="M3.648 3.912H0.064V1.8H9.824V3.912H6.24V13H3.648V3.912ZM19.5271 4.392V13H17.1591V11.976C16.8285 12.3493 16.4338 12.6373 15.9751 12.84C15.5165 13.032 15.0205 13.128 14.4871 13.128C13.3565 13.128 12.4605 12.8027 11.7991 12.152C11.1378 11.5013 10.8071 10.536 10.8071 9.256V4.392H13.3031V8.888C13.3031 10.2747 13.8845 10.968 15.0471 10.968C15.6445 10.968 16.1245 10.776 16.4871 10.392C16.8498 9.99733 17.0311 9.416 17.0311 8.648V4.392H19.5271ZM15.8631 0.983999H18.5511L15.6551 3.288H13.7031L15.8631 0.983999ZM21.8395 1.128H24.3355V13H21.8395V1.128ZM26.652 4.392H29.148V13H26.652V4.392ZM27.9 3.192C27.4413 3.192 27.068 3.05867 26.78 2.792C26.492 2.52533 26.348 2.19467 26.348 1.8C26.348 1.40533 26.492 1.07467 26.78 0.808C27.068 0.541333 27.4413 0.407999 27.9 0.407999C28.3587 0.407999 28.732 0.535999 29.02 0.792C29.308 1.048 29.452 1.368 29.452 1.752C29.452 2.168 29.308 2.51467 29.02 2.792C28.732 3.05867 28.3587 3.192 27.9 3.192ZM35.5605 13.128C34.6538 13.128 33.8378 12.9413 33.1125 12.568C32.3978 12.184 31.8378 11.656 31.4325 10.984C31.0272 10.312 30.8245 9.54933 30.8245 8.696C30.8245 7.84267 31.0272 7.08 31.4325 6.408C31.8378 5.736 32.3978 5.21333 33.1125 4.84C33.8378 4.456 34.6538 4.264 35.5605 4.264C36.4672 4.264 37.2778 4.456 37.9925 4.84C38.7072 5.21333 39.2672 5.736 39.6725 6.408C40.0778 7.08 40.2805 7.84267 40.2805 8.696C40.2805 9.54933 40.0778 10.312 39.6725 10.984C39.2672 11.656 38.7072 12.184 37.9925 12.568C37.2778 12.9413 36.4672 13.128 35.5605 13.128ZM35.5605 11.08C36.2005 11.08 36.7232 10.8667 37.1285 10.44C37.5445 10.0027 37.7525 9.42133 37.7525 8.696C37.7525 7.97067 37.5445 7.39467 37.1285 6.968C36.7232 6.53067 36.2005 6.312 35.5605 6.312C34.9205 6.312 34.3925 6.53067 33.9765 6.968C33.5605 7.39467 33.3525 7.97067 33.3525 8.696C33.3525 9.42133 33.5605 10.0027 33.9765 10.44C34.3925 10.8667 34.9205 11.08 35.5605 11.08ZM52.0161 13.192C50.8748 13.192 49.8401 12.9467 48.9121 12.456C47.9948 11.9547 47.2695 11.2667 46.7361 10.392C46.2135 9.50667 45.9521 8.50933 45.9521 7.4C45.9521 6.29067 46.2135 5.29867 46.7361 4.424C47.2695 3.53867 47.9948 2.85067 48.9121 2.36C49.8401 1.85867 50.8801 1.608 52.0321 1.608C53.0028 1.608 53.8775 1.77867 54.6561 2.12C55.4455 2.46133 56.1068 2.952 56.6401 3.592L54.9761 5.128C54.2188 4.25333 53.2801 3.816 52.1601 3.816C51.4668 3.816 50.8481 3.97067 50.3041 4.28C49.7601 4.57867 49.3335 5 49.0241 5.544C48.7255 6.088 48.5761 6.70667 48.5761 7.4C48.5761 8.09333 48.7255 8.712 49.0241 9.256C49.3335 9.8 49.7601 10.2267 50.3041 10.536C50.8481 10.8347 51.4668 10.984 52.1601 10.984C53.2801 10.984 54.2188 10.5413 54.9761 9.656L56.6401 11.192C56.1068 11.8427 55.4455 12.3387 54.6561 12.68C53.8668 13.0213 52.9868 13.192 52.0161 13.192ZM63.4465 4.264C64.5132 4.264 65.3718 4.584 66.0225 5.224C66.6838 5.864 67.0145 6.81333 67.0145 8.072V13H64.5185V8.456C64.5185 7.77333 64.3692 7.26667 64.0705 6.936C63.7718 6.59467 63.3398 6.424 62.7745 6.424C62.1452 6.424 61.6438 6.62133 61.2705 7.016C60.8972 7.4 60.7105 7.976 60.7105 8.744V13H58.2145V1.128H60.7105V5.288C61.0412 4.95733 61.4412 4.70667 61.9105 4.536C62.3798 4.35467 62.8918 4.264 63.4465 4.264ZM72.749 4.264C74.0823 4.264 75.1063 4.584 75.821 5.224C76.5357 5.85333 76.893 6.808 76.893 8.088V13H74.557V11.928C74.0877 12.728 73.213 13.128 71.933 13.128C71.2717 13.128 70.6957 13.016 70.205 12.792C69.725 12.568 69.357 12.2587 69.101 11.864C68.845 11.4693 68.717 11.0213 68.717 10.52C68.717 9.72 69.0157 9.09067 69.613 8.632C70.221 8.17333 71.1543 7.944 72.413 7.944H74.397C74.397 7.4 74.2317 6.984 73.901 6.696C73.5703 6.39733 73.0743 6.248 72.413 6.248C71.9543 6.248 71.501 6.32267 71.053 6.472C70.6157 6.61067 70.2423 6.80267 69.933 7.048L69.037 5.304C69.5063 4.97333 70.0663 4.71733 70.717 4.536C71.3783 4.35467 72.0557 4.264 72.749 4.264ZM72.557 11.448C72.9837 11.448 73.3623 11.352 73.693 11.16C74.0237 10.9573 74.2583 10.664 74.397 10.28V9.4H72.685C71.661 9.4 71.149 9.736 71.149 10.408C71.149 10.728 71.2717 10.984 71.517 11.176C71.773 11.3573 72.1197 11.448 72.557 11.448ZM87.5398 4.392L83.9078 13H81.3318L77.7157 4.392H80.2918L82.6758 10.248L85.1398 4.392H87.5398ZM96.7559 8.728C96.7559 8.76 96.7399 8.984 96.7079 9.4H90.1959C90.3132 9.93333 90.5905 10.3547 91.0279 10.664C91.4652 10.9733 92.0092 11.128 92.6599 11.128C93.1079 11.128 93.5025 11.064 93.8439 10.936C94.1959 10.7973 94.5212 10.584 94.8199 10.296L96.1479 11.736C95.3372 12.664 94.1532 13.128 92.5959 13.128C91.6252 13.128 90.7665 12.9413 90.0199 12.568C89.2732 12.184 88.6972 11.656 88.2919 10.984C87.8865 10.312 87.6839 9.54933 87.6839 8.696C87.6839 7.85333 87.8812 7.096 88.2759 6.424C88.6812 5.74133 89.2305 5.21333 89.9239 4.84C90.6279 4.456 91.4119 4.264 92.2759 4.264C93.1185 4.264 93.8812 4.44533 94.5639 4.808C95.2465 5.17067 95.7799 5.69333 96.1639 6.376C96.5585 7.048 96.7559 7.832 96.7559 8.728ZM92.2919 6.152C91.7265 6.152 91.2519 6.312 90.8679 6.632C90.4839 6.952 90.2492 7.38933 90.1639 7.944H94.4039C94.3185 7.4 94.0839 6.968 93.6999 6.648C93.3159 6.31733 92.8465 6.152 92.2919 6.152ZM101.314 13.128C100.599 13.128 99.9003 13.0427 99.2176 12.872C98.535 12.6907 97.991 12.4667 97.5856 12.2L98.4176 10.408C98.8016 10.6533 99.2656 10.856 99.8096 11.016C100.354 11.1653 100.887 11.24 101.41 11.24C102.466 11.24 102.994 10.9787 102.994 10.456C102.994 10.2107 102.85 10.0347 102.562 9.928C102.274 9.82133 101.831 9.73067 101.234 9.656C100.53 9.54933 99.9483 9.42667 99.4896 9.288C99.031 9.14933 98.631 8.904 98.2896 8.552C97.959 8.2 97.7936 7.69867 97.7936 7.048C97.7936 6.504 97.9483 6.024 98.2576 5.608C98.5776 5.18133 99.0363 4.85067 99.6336 4.616C100.242 4.38133 100.956 4.264 101.778 4.264C102.386 4.264 102.988 4.33333 103.586 4.472C104.194 4.6 104.695 4.78133 105.09 5.016L104.258 6.792C103.5 6.36533 102.674 6.152 101.778 6.152C101.244 6.152 100.844 6.22667 100.578 6.376C100.311 6.52533 100.178 6.71733 100.178 6.952C100.178 7.21867 100.322 7.40533 100.61 7.512C100.898 7.61867 101.356 7.72 101.986 7.816C102.69 7.93333 103.266 8.06133 103.714 8.2C104.162 8.328 104.551 8.568 104.882 8.92C105.212 9.272 105.378 9.76267 105.378 10.392C105.378 10.9253 105.218 11.4 104.898 11.816C104.578 12.232 104.108 12.5573 103.49 12.792C102.882 13.016 102.156 13.128 101.314 13.128Z" fill="#00183A"/>
<path d="M2.17383 34H1.17773V25.4336H5.95312V26.3184H2.17383V29.4531H5.72461V30.3379H2.17383V34ZM10.1602 27.4609C10.4453 27.4609 10.7012 27.4844 10.9277 27.5312L10.793 28.4336C10.5273 28.375 10.293 28.3457 10.0898 28.3457C9.57031 28.3457 9.125 28.5566 8.75391 28.9785C8.38672 29.4004 8.20312 29.9258 8.20312 30.5547V34H7.23047V27.5781H8.0332L8.14453 28.7676H8.19141C8.42969 28.3496 8.7168 28.0273 9.05273 27.8008C9.38867 27.5742 9.75781 27.4609 10.1602 27.4609ZM17.6719 30.7832C17.6719 31.8301 17.4082 32.6484 16.8809 33.2383C16.3535 33.8242 15.625 34.1172 14.6953 34.1172C14.1211 34.1172 13.6113 33.9824 13.166 33.7129C12.7207 33.4434 12.377 33.0566 12.1348 32.5527C11.8926 32.0488 11.7715 31.459 11.7715 30.7832C11.7715 29.7363 12.0332 28.9219 12.5566 28.3398C13.0801 27.7539 13.8066 27.4609 14.7363 27.4609C15.6348 27.4609 16.3477 27.7598 16.875 28.3574C17.4062 28.9551 17.6719 29.7637 17.6719 30.7832ZM12.7793 30.7832C12.7793 31.6035 12.9434 32.2285 13.2715 32.6582C13.5996 33.0879 14.082 33.3027 14.7188 33.3027C15.3555 33.3027 15.8379 33.0898 16.166 32.6641C16.498 32.2344 16.6641 31.6074 16.6641 30.7832C16.6641 29.9668 16.498 29.3477 16.166 28.9258C15.8379 28.5 15.3516 28.2871 14.707 28.2871C14.0703 28.2871 13.5898 28.4961 13.2656 28.9141C12.9414 29.332 12.7793 29.9551 12.7793 30.7832ZM23.7773 34V29.8457C23.7773 29.3223 23.6582 28.9316 23.4199 28.6738C23.1816 28.416 22.8086 28.2871 22.3008 28.2871C21.6289 28.2871 21.1367 28.4688 20.8242 28.832C20.5117 29.1953 20.3555 29.7949 20.3555 30.6309V34H19.3828V27.5781H20.1738L20.332 28.457H20.3789C20.5781 28.1406 20.8574 27.8965 21.2168 27.7246C21.5762 27.5488 21.9766 27.4609 22.418 27.4609C23.1914 27.4609 23.7734 27.6484 24.1641 28.0234C24.5547 28.3945 24.75 28.9902 24.75 29.8105V34H23.7773ZM28.8281 33.3145C29 33.3145 29.166 33.3027 29.3262 33.2793C29.4863 33.252 29.6133 33.2246 29.707 33.1973V33.9414C29.6016 33.9922 29.4453 34.0332 29.2383 34.0645C29.0352 34.0996 28.8516 34.1172 28.6875 34.1172C27.4453 34.1172 26.8242 33.4629 26.8242 32.1543V28.334H25.9043V27.8652L26.8242 27.4609L27.2344 26.0898H27.7969V27.5781H29.6602V28.334H27.7969V32.1133C27.7969 32.5 27.8887 32.7969 28.0723 33.0039C28.2559 33.2109 28.5078 33.3145 28.8281 33.3145ZM35.918 34H31.1426V25.4336H35.918V26.3184H32.1387V29.0781H35.6895V29.957H32.1387V33.1094H35.918V34ZM42.0703 34V29.8457C42.0703 29.3223 41.9512 28.9316 41.7129 28.6738C41.4746 28.416 41.1016 28.2871 40.5938 28.2871C39.9219 28.2871 39.4297 28.4688 39.1172 28.832C38.8047 29.1953 38.6484 29.7949 38.6484 30.6309V34H37.6758V27.5781H38.4668L38.625 28.457H38.6719C38.8711 28.1406 39.1504 27.8965 39.5098 27.7246C39.8691 27.5488 40.2695 27.4609 40.7109 27.4609C41.4844 27.4609 42.0664 27.6484 42.457 28.0234C42.8477 28.3945 43.043 28.9902 43.043 29.8105V34H42.0703ZM49.418 33.1387H49.3652C48.916 33.791 48.2441 34.1172 47.3496 34.1172C46.5098 34.1172 45.8555 33.8301 45.3867 33.2559C44.9219 32.6816 44.6895 31.8652 44.6895 30.8066C44.6895 29.748 44.9238 28.9258 45.3926 28.3398C45.8613 27.7539 46.5137 27.4609 47.3496 27.4609C48.2207 27.4609 48.8887 27.7773 49.3535 28.4102H49.4297L49.3887 27.9473L49.3652 27.4961V24.8828H50.3379V34H49.5469L49.418 33.1387ZM47.4727 33.3027C48.1367 33.3027 48.6172 33.123 48.9141 32.7637C49.2148 32.4004 49.3652 31.8164 49.3652 31.0117V30.8066C49.3652 29.8965 49.2129 29.248 48.9082 28.8613C48.6074 28.4707 48.125 28.2754 47.4609 28.2754C46.8906 28.2754 46.4531 28.498 46.1484 28.9434C45.8477 29.3848 45.6973 30.0098 45.6973 30.8184C45.6973 31.6387 45.8477 32.2578 46.1484 32.6758C46.4492 33.0938 46.8906 33.3027 47.4727 33.3027ZM62.5078 29.6348C62.5078 31.0488 62.123 32.1309 61.3535 32.8809C60.5879 33.627 59.4844 34 58.043 34H55.6699V25.4336H58.2949C59.627 25.4336 60.6621 25.8027 61.4004 26.541C62.1387 27.2793 62.5078 28.3105 62.5078 29.6348ZM61.4531 29.6699C61.4531 28.5527 61.1719 27.7109 60.6094 27.1445C60.0508 26.5781 59.2188 26.2949 58.1133 26.2949H56.666V33.1387H57.8789C59.0664 33.1387 59.959 32.8477 60.5566 32.2656C61.1543 31.6797 61.4531 30.8145 61.4531 29.6699ZM66.9902 34.1172C66.041 34.1172 65.291 33.8281 64.7402 33.25C64.1934 32.6719 63.9199 31.8691 63.9199 30.8418C63.9199 29.8066 64.1738 28.9844 64.6816 28.375C65.1934 27.7656 65.8789 27.4609 66.7383 27.4609C67.543 27.4609 68.1797 27.7266 68.6484 28.2578C69.1172 28.7852 69.3516 29.4824 69.3516 30.3496V30.9648H64.9277C64.9473 31.7188 65.1367 32.291 65.4961 32.6816C65.8594 33.0723 66.3691 33.2676 67.0254 33.2676C67.7168 33.2676 68.4004 33.123 69.0762 32.834V33.7012C68.7324 33.8496 68.4062 33.9551 68.0977 34.0176C67.793 34.084 67.4238 34.1172 66.9902 34.1172ZM66.7266 28.2754C66.2109 28.2754 65.7988 28.4434 65.4902 28.7793C65.1855 29.1152 65.0059 29.5801 64.9512 30.1738H68.3086C68.3086 29.5605 68.1719 29.0918 67.8984 28.7676C67.625 28.4395 67.2344 28.2754 66.7266 28.2754ZM72.4219 34L69.9844 27.5781H71.0273L72.4102 31.3867C72.7227 32.2773 72.9062 32.8555 72.9609 33.1211H73.0078C73.0508 32.9141 73.1855 32.4863 73.4121 31.8379C73.6426 31.1855 74.1562 29.7656 74.9531 27.5781H75.9961L73.5586 34H72.4219ZM79.7402 34.1172C78.791 34.1172 78.041 33.8281 77.4902 33.25C76.9434 32.6719 76.6699 31.8691 76.6699 30.8418C76.6699 29.8066 76.9238 28.9844 77.4316 28.375C77.9434 27.7656 78.6289 27.4609 79.4883 27.4609C80.293 27.4609 80.9297 27.7266 81.3984 28.2578C81.8672 28.7852 82.1016 29.4824 82.1016 30.3496V30.9648H77.6777C77.6973 31.7188 77.8867 32.291 78.2461 32.6816C78.6094 33.0723 79.1191 33.2676 79.7754 33.2676C80.4668 33.2676 81.1504 33.123 81.8262 32.834V33.7012C81.4824 33.8496 81.1562 33.9551 80.8477 34.0176C80.543 34.084 80.1738 34.1172 79.7402 34.1172ZM79.4766 28.2754C78.9609 28.2754 78.5488 28.4434 78.2402 28.7793C77.9355 29.1152 77.7559 29.5801 77.7012 30.1738H81.0586C81.0586 29.5605 80.9219 29.0918 80.6484 28.7676C80.375 28.4395 79.9844 28.2754 79.4766 28.2754ZM84.7383 34H83.7656V24.8828H84.7383V34ZM92.3438 30.7832C92.3438 31.8301 92.0801 32.6484 91.5527 33.2383C91.0254 33.8242 90.2969 34.1172 89.3672 34.1172C88.793 34.1172 88.2832 33.9824 87.8379 33.7129C87.3926 33.4434 87.0488 33.0566 86.8066 32.5527C86.5645 32.0488 86.4434 31.459 86.4434 30.7832C86.4434 29.7363 86.7051 28.9219 87.2285 28.3398C87.752 27.7539 88.4785 27.4609 89.4082 27.4609C90.3066 27.4609 91.0195 27.7598 91.5469 28.3574C92.0781 28.9551 92.3438 29.7637 92.3438 30.7832ZM87.4512 30.7832C87.4512 31.6035 87.6152 32.2285 87.9434 32.6582C88.2715 33.0879 88.7539 33.3027 89.3906 33.3027C90.0273 33.3027 90.5098 33.0898 90.8379 32.6641C91.1699 32.2344 91.3359 31.6074 91.3359 30.7832C91.3359 29.9668 91.1699 29.3477 90.8379 28.9258C90.5098 28.5 90.0234 28.2871 89.3789 28.2871C88.7422 28.2871 88.2617 28.4961 87.9375 28.9141C87.6133 29.332 87.4512 29.9551 87.4512 30.7832ZM97.043 34.1172C96.625 34.1172 96.2422 34.041 95.8945 33.8887C95.5508 33.7324 95.2617 33.4941 95.0273 33.1738H94.957C95.0039 33.5488 95.0273 33.9043 95.0273 34.2402V36.8828H94.0547V27.5781H94.8457L94.9805 28.457H95.0273C95.2773 28.1055 95.5684 27.8516 95.9004 27.6953C96.2324 27.5391 96.6133 27.4609 97.043 27.4609C97.8945 27.4609 98.5508 27.752 99.0117 28.334C99.4766 28.916 99.709 29.7324 99.709 30.7832C99.709 31.8379 99.4727 32.6582 99 33.2441C98.5312 33.8262 97.8789 34.1172 97.043 34.1172ZM96.9023 28.2871C96.2461 28.2871 95.7715 28.4688 95.4785 28.832C95.1855 29.1953 95.0352 29.7734 95.0273 30.5664V30.7832C95.0273 31.6855 95.1777 32.332 95.4785 32.7227C95.7793 33.1094 96.2617 33.3027 96.9258 33.3027C97.4805 33.3027 97.9141 33.0781 98.2266 32.6289C98.543 32.1797 98.7012 31.5605 98.7012 30.7715C98.7012 29.9707 98.543 29.3574 98.2266 28.9316C97.9141 28.502 97.4727 28.2871 96.9023 28.2871ZM104.127 34.1172C103.178 34.1172 102.428 33.8281 101.877 33.25C101.33 32.6719 101.057 31.8691 101.057 30.8418C101.057 29.8066 101.311 28.9844 101.818 28.375C102.33 27.7656 103.016 27.4609 103.875 27.4609C104.68 27.4609 105.316 27.7266 105.785 28.2578C106.254 28.7852 106.488 29.4824 106.488 30.3496V30.9648H102.064C102.084 31.7188 102.273 32.291 102.633 32.6816C102.996 33.0723 103.506 33.2676 104.162 33.2676C104.854 33.2676 105.537 33.123 106.213 32.834V33.7012C105.869 33.8496 105.543 33.9551 105.234 34.0176C104.93 34.084 104.561 34.1172 104.127 34.1172ZM103.863 28.2754C103.348 28.2754 102.936 28.4434 102.627 28.7793C102.322 29.1152 102.143 29.5801 102.088 30.1738H105.445C105.445 29.5605 105.309 29.0918 105.035 28.7676C104.762 28.4395 104.371 28.2754 103.863 28.2754ZM111.082 27.4609C111.367 27.4609 111.623 27.4844 111.85 27.5312L111.715 28.4336C111.449 28.375 111.215 28.3457 111.012 28.3457C110.492 28.3457 110.047 28.5566 109.676 28.9785C109.309 29.4004 109.125 29.9258 109.125 30.5547V34H108.152V27.5781H108.955L109.066 28.7676H109.113C109.352 28.3496 109.639 28.0273 109.975 27.8008C110.311 27.5742 110.68 27.4609 111.082 27.4609Z" fill="#00183A"/>
<path d="M8.6543 50H7.66992L5.94141 44.2637C5.85938 44.0098 5.76758 43.6895 5.66602 43.3027C5.56445 42.916 5.51172 42.6836 5.50781 42.6055C5.42188 43.1211 5.28516 43.6855 5.09766 44.2988L3.42188 50H2.4375L0.158203 41.4336H1.21289L2.56641 46.7246C2.75391 47.4668 2.89062 48.1387 2.97656 48.7402C3.08203 48.0254 3.23828 47.3262 3.44531 46.6426L4.98047 41.4336H6.03516L7.64648 46.6895C7.83398 47.2949 7.99219 47.9785 8.12109 48.7402C8.19531 48.1855 8.33594 47.5098 8.54297 46.7129L9.89062 41.4336H10.9453L8.6543 50ZM14.8535 50.1172C13.9043 50.1172 13.1543 49.8281 12.6035 49.25C12.0566 48.6719 11.7832 47.8691 11.7832 46.8418C11.7832 45.8066 12.0371 44.9844 12.5449 44.375C13.0566 43.7656 13.7422 43.4609 14.6016 43.4609C15.4062 43.4609 16.043 43.7266 16.5117 44.2578C16.9805 44.7852 17.2148 45.4824 17.2148 46.3496V46.9648H12.791C12.8105 47.7188 13 48.291 13.3594 48.6816C13.7227 49.0723 14.2324 49.2676 14.8887 49.2676C15.5801 49.2676 16.2637 49.123 16.9395 48.834V49.7012C16.5957 49.8496 16.2695 49.9551 15.9609 50.0176C15.6562 50.084 15.2871 50.1172 14.8535 50.1172ZM14.5898 44.2754C14.0742 44.2754 13.6621 44.4434 13.3535 44.7793C13.0488 45.1152 12.8691 45.5801 12.8145 46.1738H16.1719C16.1719 45.5605 16.0352 45.0918 15.7617 44.7676C15.4883 44.4395 15.0977 44.2754 14.5898 44.2754ZM21.8672 43.4727C22.7109 43.4727 23.3652 43.7617 23.8301 44.3398C24.2988 44.9141 24.5332 45.7285 24.5332 46.7832C24.5332 47.8379 24.2969 48.6582 23.8242 49.2441C23.3555 49.8262 22.7031 50.1172 21.8672 50.1172C21.4492 50.1172 21.0664 50.041 20.7188 49.8887C20.375 49.7324 20.0859 49.4941 19.8516 49.1738H19.7812L19.5762 50H18.8789V40.8828H19.8516V43.0977C19.8516 43.5938 19.8359 44.0391 19.8047 44.4336H19.8516C20.3047 43.793 20.9766 43.4727 21.8672 43.4727ZM21.7266 44.2871C21.0625 44.2871 20.584 44.4785 20.291 44.8613C19.998 45.2402 19.8516 45.8809 19.8516 46.7832C19.8516 47.6855 20.002 48.332 20.3027 48.7227C20.6035 49.1094 21.0859 49.3027 21.75 49.3027C22.3477 49.3027 22.793 49.0859 23.0859 48.6523C23.3789 48.2148 23.5254 47.5879 23.5254 46.7715C23.5254 45.9355 23.3789 45.3125 23.0859 44.9023C22.793 44.4922 22.3398 44.2871 21.7266 44.2871ZM36.3398 45.6348C36.3398 47.0488 35.9551 48.1309 35.1855 48.8809C34.4199 49.627 33.3164 50 31.875 50H29.502V41.4336H32.127C33.459 41.4336 34.4941 41.8027 35.2324 42.541C35.9707 43.2793 36.3398 44.3105 36.3398 45.6348ZM35.2852 45.6699C35.2852 44.5527 35.0039 43.7109 34.4414 43.1445C33.8828 42.5781 33.0508 42.2949 31.9453 42.2949H30.498V49.1387H31.7109C32.8984 49.1387 33.791 48.8477 34.3887 48.2656C34.9863 47.6797 35.2852 46.8145 35.2852 45.6699ZM40.8223 50.1172C39.873 50.1172 39.123 49.8281 38.5723 49.25C38.0254 48.6719 37.752 47.8691 37.752 46.8418C37.752 45.8066 38.0059 44.9844 38.5137 44.375C39.0254 43.7656 39.7109 43.4609 40.5703 43.4609C41.375 43.4609 42.0117 43.7266 42.4805 44.2578C42.9492 44.7852 43.1836 45.4824 43.1836 46.3496V46.9648H38.7598C38.7793 47.7188 38.9688 48.291 39.3281 48.6816C39.6914 49.0723 40.2012 49.2676 40.8574 49.2676C41.5488 49.2676 42.2324 49.123 42.9082 48.834V49.7012C42.5645 49.8496 42.2383 49.9551 41.9297 50.0176C41.625 50.084 41.2559 50.1172 40.8223 50.1172ZM40.5586 44.2754C40.043 44.2754 39.6309 44.4434 39.3223 44.7793C39.0176 45.1152 38.8379 45.5801 38.7832 46.1738H42.1406C42.1406 45.5605 42.0039 45.0918 41.7305 44.7676C41.457 44.4395 41.0664 44.2754 40.5586 44.2754ZM48.9902 48.248C48.9902 48.8457 48.7676 49.3066 48.3223 49.6309C47.877 49.9551 47.252 50.1172 46.4473 50.1172C45.5957 50.1172 44.9316 49.9824 44.4551 49.7129V48.8105C44.7637 48.9668 45.0938 49.0898 45.4453 49.1797C45.8008 49.2695 46.1426 49.3145 46.4707 49.3145C46.9785 49.3145 47.3691 49.2344 47.6426 49.0742C47.916 48.9102 48.0527 48.6621 48.0527 48.3301C48.0527 48.0801 47.9434 47.8672 47.7246 47.6914C47.5098 47.5117 47.0879 47.3008 46.459 47.0586C45.8613 46.8359 45.4355 46.6426 45.1816 46.4785C44.9316 46.3105 44.7441 46.1211 44.6191 45.9102C44.498 45.6992 44.4375 45.4473 44.4375 45.1543C44.4375 44.6309 44.6504 44.2188 45.0762 43.918C45.502 43.6133 46.0859 43.4609 46.8281 43.4609C47.5195 43.4609 48.1953 43.6016 48.8555 43.8828L48.5098 44.6738C47.8652 44.4082 47.2812 44.2754 46.7578 44.2754C46.2969 44.2754 45.9492 44.3477 45.7148 44.4922C45.4805 44.6367 45.3633 44.8359 45.3633 45.0898C45.3633 45.2617 45.4062 45.4082 45.4922 45.5293C45.582 45.6504 45.7246 45.7656 45.9199 45.875C46.1152 45.9844 46.4902 46.1426 47.0449 46.3496C47.8066 46.627 48.3203 46.9062 48.5859 47.1875C48.8555 47.4688 48.9902 47.8223 48.9902 48.248ZM51.5508 50H50.5781V43.5781H51.5508V50ZM50.4961 41.8379C50.4961 41.6152 50.5508 41.4531 50.6602 41.3516C50.7695 41.2461 50.9062 41.1934 51.0703 41.1934C51.2266 41.1934 51.3613 41.2461 51.4746 41.3516C51.5879 41.457 51.6445 41.6191 51.6445 41.8379C51.6445 42.0566 51.5879 42.2207 51.4746 42.3301C51.3613 42.4355 51.2266 42.4883 51.0703 42.4883C50.9062 42.4883 50.7695 42.4355 50.6602 42.3301C50.5508 42.2207 50.4961 42.0566 50.4961 41.8379ZM58.8691 43.5781V44.1934L57.6797 44.334C57.7891 44.4707 57.8867 44.6504 57.9727 44.873C58.0586 45.0918 58.1016 45.3398 58.1016 45.6172C58.1016 46.2461 57.8867 46.748 57.457 47.123C57.0273 47.498 56.4375 47.6855 55.6875 47.6855C55.4961 47.6855 55.3164 47.6699 55.1484 47.6387C54.7344 47.8574 54.5273 48.1328 54.5273 48.4648C54.5273 48.6406 54.5996 48.7715 54.7441 48.8574C54.8887 48.9395 55.1367 48.9805 55.4883 48.9805H56.625C57.3203 48.9805 57.8535 49.127 58.2246 49.4199C58.5996 49.7129 58.7871 50.1387 58.7871 50.6973C58.7871 51.4082 58.502 51.9492 57.9316 52.3203C57.3613 52.6953 56.5293 52.8828 55.4355 52.8828C54.5957 52.8828 53.9473 52.7266 53.4902 52.4141C53.0371 52.1016 52.8105 51.6602 52.8105 51.0898C52.8105 50.6992 52.9355 50.3613 53.1855 50.0762C53.4355 49.791 53.7871 49.5977 54.2402 49.4961C54.0762 49.4219 53.9375 49.3066 53.8242 49.1504C53.7148 48.9941 53.6602 48.8125 53.6602 48.6055C53.6602 48.3711 53.7227 48.166 53.8477 47.9902C53.9727 47.8145 54.1699 47.6445 54.4395 47.4805C54.1074 47.3438 53.8359 47.1113 53.625 46.7832C53.418 46.4551 53.3145 46.0801 53.3145 45.6582C53.3145 44.9551 53.5254 44.4141 53.9473 44.0352C54.3691 43.6523 54.9668 43.4609 55.7402 43.4609C56.0762 43.4609 56.3789 43.5 56.6484 43.5781H58.8691ZM53.748 51.0781C53.748 51.4258 53.8945 51.6895 54.1875 51.8691C54.4805 52.0488 54.9004 52.1387 55.4473 52.1387C56.2637 52.1387 56.8672 52.0156 57.2578 51.7695C57.6523 51.5273 57.8496 51.1973 57.8496 50.7793C57.8496 50.4316 57.7422 50.1895 57.5273 50.0527C57.3125 49.9199 56.9082 49.8535 56.3145 49.8535H55.1484C54.707 49.8535 54.3633 49.959 54.1172 50.1699C53.8711 50.3809 53.748 50.6836 53.748 51.0781ZM54.2754 45.6348C54.2754 46.084 54.4023 46.4238 54.6562 46.6543C54.9102 46.8848 55.2637 47 55.7168 47C56.666 47 57.1406 46.5391 57.1406 45.6172C57.1406 44.6523 56.6602 44.1699 55.6992 44.1699C55.2422 44.1699 54.8906 44.293 54.6445 44.5391C54.3984 44.7852 54.2754 45.1504 54.2754 45.6348ZM64.582 50V45.8457C64.582 45.3223 64.4629 44.9316 64.2246 44.6738C63.9863 44.416 63.6133 44.2871 63.1055 44.2871C62.4336 44.2871 61.9414 44.4688 61.6289 44.832C61.3164 45.1953 61.1602 45.7949 61.1602 46.6309V50H60.1875V43.5781H60.9785L61.1367 44.457H61.1836C61.3828 44.1406 61.6621 43.8965 62.0215 43.7246C62.3809 43.5488 62.7812 43.4609 63.2227 43.4609C63.9961 43.4609 64.5781 43.6484 64.9688 44.0234C65.3594 44.3945 65.5547 44.9902 65.5547 45.8105V50H64.582ZM70.2715 50.1172C69.3223 50.1172 68.5723 49.8281 68.0215 49.25C67.4746 48.6719 67.2012 47.8691 67.2012 46.8418C67.2012 45.8066 67.4551 44.9844 67.9629 44.375C68.4746 43.7656 69.1602 43.4609 70.0195 43.4609C70.8242 43.4609 71.4609 43.7266 71.9297 44.2578C72.3984 44.7852 72.6328 45.4824 72.6328 46.3496V46.9648H68.209C68.2285 47.7188 68.418 48.291 68.7773 48.6816C69.1406 49.0723 69.6504 49.2676 70.3066 49.2676C70.998 49.2676 71.6816 49.123 72.3574 48.834V49.7012C72.0137 49.8496 71.6875 49.9551 71.3789 50.0176C71.0742 50.084 70.7051 50.1172 70.2715 50.1172ZM70.0078 44.2754C69.4922 44.2754 69.0801 44.4434 68.7715 44.7793C68.4668 45.1152 68.2871 45.5801 68.2324 46.1738H71.5898C71.5898 45.5605 71.4531 45.0918 71.1797 44.7676C70.9062 44.4395 70.5156 44.2754 70.0078 44.2754ZM77.2266 43.4609C77.5117 43.4609 77.7676 43.4844 77.9941 43.5312L77.8594 44.4336C77.5938 44.375 77.3594 44.3457 77.1562 44.3457C76.6367 44.3457 76.1914 44.5566 75.8203 44.9785C75.4531 45.4004 75.2695 45.9258 75.2695 46.5547V50H74.2969V43.5781H75.0996L75.2109 44.7676H75.2578C75.4961 44.3496 75.7832 44.0273 76.1191 43.8008C76.4551 43.5742 76.8242 43.4609 77.2266 43.4609Z" fill="#00183A"/>
<rect y="19" width="1" height="32" transform="rotate(-90 0 19)" fill="#004DBB"/>
</svg>
