<svg width="22" height="22" viewBox="0 0 22 22" fill="none" xmlns="http://www.w3.org/2000/svg">
<path d="M19.25 0.5H2.75C1.48438 0.5 0.5 1.53125 0.5 2.75V19.25C0.5 20.5156 1.48438 21.5 2.75 21.5H19.25C20.4688 21.5 21.5 20.5156 21.5 19.25V2.75C21.5 1.53125 20.4688 0.5 19.25 0.5ZM13.4844 18.5C13.0625 18.5938 12.9219 18.3125 12.9219 18.125C12.9219 17.8906 12.9688 16.5781 12.9688 15.5469C12.9688 14.7969 12.6875 14.3281 12.4062 14.0938C14.1406 13.9062 15.9688 13.6719 15.9688 10.6719C15.9688 9.82812 15.6875 9.40625 15.1719 8.84375C15.2656 8.65625 15.5469 7.8125 15.0781 6.73438C14.4688 6.54688 12.9688 7.57812 12.9688 7.57812C12.3594 7.39062 11.6562 7.29688 11 7.29688C10.3438 7.29688 9.6875 7.39062 9.07812 7.57812C9.07812 7.57812 7.57812 6.54688 6.92188 6.73438C6.5 7.8125 6.73438 8.65625 6.82812 8.84375C6.35938 9.40625 6.125 9.82812 6.125 10.6719C6.125 13.6719 7.85938 13.9062 9.59375 14.0938C9.35938 14.2812 9.17188 14.6562 9.07812 15.125C8.65625 15.3594 7.48438 15.6875 6.82812 14.5156C6.40625 13.7656 5.60938 13.6719 5.60938 13.6719C4.85938 13.6719 5.5625 14.1875 5.5625 14.1875C6.07812 14.4219 6.45312 15.3125 6.45312 15.3125C6.875 16.7188 9.07812 16.25 9.07812 16.25C9.07812 16.8594 9.07812 17.9375 9.07812 18.125C9.07812 18.3125 8.9375 18.5938 8.5625 18.5C5.46875 17.4688 3.26562 14.5156 3.26562 11.0938C3.26562 6.78125 6.59375 3.5 10.8594 3.5C15.1719 3.5 18.6875 6.78125 18.6875 11.0938C18.6875 14.5156 16.5781 17.4688 13.4844 18.5ZM8.89062 15.6406C8.98438 15.6406 9.03125 15.5469 9.03125 15.5C9.03125 15.4531 8.9375 15.4062 8.84375 15.4062C8.75 15.4531 8.70312 15.5 8.70312 15.5469C8.70312 15.6406 8.79688 15.6406 8.89062 15.6406ZM8.42188 15.5938C8.42188 15.6406 8.375 15.7344 8.28125 15.7344C8.1875 15.7344 8.09375 15.6875 8.09375 15.5938C8.09375 15.5469 8.1875 15.5 8.28125 15.5C8.32812 15.5 8.42188 15.5469 8.42188 15.5938ZM7.8125 15.5469C7.8125 15.5 7.76562 15.4062 7.67188 15.4062C7.57812 15.3594 7.48438 15.4062 7.48438 15.4531C7.4375 15.5 7.53125 15.5938 7.57812 15.5938C7.67188 15.6406 7.76562 15.5938 7.8125 15.5469ZM7.20312 15.3125C7.15625 15.3594 7.0625 15.3594 7.01562 15.2656C6.92188 15.2188 6.92188 15.125 6.96875 15.0781C7.01562 15.0312 7.10938 15.0312 7.15625 15.125C7.25 15.1719 7.25 15.2656 7.20312 15.3125ZM6.78125 14.8906C6.73438 14.8906 6.6875 14.8906 6.59375 14.7969C6.54688 14.75 6.54688 14.6562 6.59375 14.6094C6.6875 14.5625 6.73438 14.6094 6.78125 14.6562C6.82812 14.75 6.82812 14.8438 6.78125 14.8906ZM6.5 14.4219C6.45312 14.4688 6.35938 14.4219 6.3125 14.375C6.26562 14.3281 6.26562 14.2344 6.3125 14.2344C6.35938 14.1875 6.40625 14.1875 6.45312 14.2344C6.5 14.3281 6.54688 14.375 6.5 14.4219ZM6.17188 14.0469C6.17188 14.0938 6.07812 14.1406 6.03125 14.0938C5.98438 14.0469 5.9375 14 5.98438 13.9531C5.98438 13.9531 6.03125 13.9062 6.07812 13.9531C6.17188 14 6.17188 14.0469 6.17188 14.0469Z" fill="#004DBB"/>
</svg>
