<svg width="72" height="76" viewBox="0 0 72 76" fill="none" xmlns="http://www.w3.org/2000/svg">
<path d="M6.55233 68.4027L0 0H72L65.4405 68.3919L35.9558 76L6.55233 68.4027Z" fill="#E44D26"/>
<path d="M35.9999 70.1847L59.8247 64.0368L65.4305 5.59308H35.9999V70.1847Z" fill="#F16529"/>
<path d="M36.0003 30.9628H24.0732L23.2493 22.3721H36.0003V13.9827H13.3982L13.6142 16.2334L15.8295 39.352H36.0003V30.9628ZM36.0003 52.7506L35.9607 52.7606L25.9223 50.2376L25.2805 43.547H16.2324L17.4953 56.7194L35.9591 61.49L36.0003 61.4792V52.7506Z" fill="#EBEBEB"/>
<path d="M35.969 30.9628V39.352H47.0684L46.022 50.2324L35.969 52.7576V61.4856L54.4475 56.7194L54.5826 55.3016L56.7011 33.2157L56.921 30.9628H54.4923H35.969ZM35.969 13.9827V22.3721H57.7413L57.9218 20.4863L58.3325 16.2334L58.5482 13.9827H35.969Z" fill="white"/>
</svg>
