<svg width="100" height="114" viewBox="0 0 100 114" fill="none" xmlns="http://www.w3.org/2000/svg">
<path d="M9.10045 102.604L0 0H100L90.8895 102.588L49.9386 114L9.10045 102.604Z" fill="#E44D26"/>
<path d="M50 105.277L83.09 96.0552L90.8759 8.38965H50V105.277Z" fill="#F16529"/>
<path d="M50.0005 46.4443H33.435L32.2907 33.5581H50.0005V20.974H18.6086L18.9086 24.3501L21.9855 59.0279H50.0005V46.4443ZM50.0005 79.1259L49.9455 79.141L36.0032 75.3564L35.1118 65.3205H22.545L24.2991 85.0791L49.9432 92.235L50.0005 92.2188V79.1259Z" fill="#EBEBEB"/>
<path d="M49.957 46.4443V59.0279H65.3729L63.9195 75.3486L49.957 79.1364V92.2284L75.6216 85.0791L75.8093 82.9525L78.7516 49.8235L79.057 46.4443H75.6839H49.957ZM49.957 20.974V33.5581H80.1964L80.447 30.7294L81.0175 24.3501L81.317 20.974H49.957Z" fill="white"/>
</svg>
