<svg width="22" height="22" viewBox="0 0 22 22" fill="none" xmlns="http://www.w3.org/2000/svg">
<path d="M20 0.5H1.95312C1.15625 0.5 0.5 1.20312 0.5 2.04688V20C0.5 20.8438 1.15625 21.5 1.95312 21.5H20C20.7969 21.5 21.5 20.8438 21.5 20V2.04688C21.5 1.20312 20.7969 0.5 20 0.5ZM6.82812 18.5H3.73438V8.51562H6.82812V18.5ZM5.28125 7.10938C4.25 7.10938 3.45312 6.3125 3.45312 5.32812C3.45312 4.34375 4.25 3.5 5.28125 3.5C6.26562 3.5 7.0625 4.34375 7.0625 5.32812C7.0625 6.3125 6.26562 7.10938 5.28125 7.10938ZM18.5 18.5H15.3594V13.625C15.3594 12.5 15.3594 11 13.7656 11C12.125 11 11.8906 12.2656 11.8906 13.5781V18.5H8.79688V8.51562H11.75V9.875H11.7969C12.2188 9.07812 13.25 8.23438 14.75 8.23438C17.8906 8.23438 18.5 10.3438 18.5 13.0156V18.5Z" fill="#004DBB"/>
</svg>
