<svg width="84" height="76" viewBox="0 0 84 76" fill="none" xmlns="http://www.w3.org/2000/svg">
<path d="M84 38.0087C84 32.3552 77.0314 26.9975 66.3473 23.675C68.8129 12.6116 67.7171 3.80957 62.8887 0.991531C61.7758 0.33051 60.4745 0.017395 59.0534 0.017395V3.89654C59.841 3.89654 60.4745 4.0531 61.0053 4.34882C63.3339 5.70565 64.3441 10.8721 63.5565 17.517C63.3681 19.1522 63.0599 20.8743 62.6832 22.6313C59.3274 21.7963 55.6633 21.1527 51.8108 20.7352C49.4994 17.517 47.1023 14.5946 44.6881 12.0375C50.2699 6.76676 55.5092 3.87915 59.0705 3.87915V0C54.362 0 48.1981 3.40948 41.9658 9.32387C35.7334 3.44427 29.5695 0.0695814 24.861 0.0695814V3.94873C28.4052 3.94873 33.6616 6.81895 39.2434 12.0549C36.8463 14.612 34.4492 17.517 32.172 20.7352C28.3025 21.1527 24.6384 21.7963 21.2825 22.6487C20.8887 20.9091 20.5976 19.2218 20.3922 17.604C19.5874 10.959 20.5805 5.79263 22.892 4.4184C23.4056 4.10529 24.0734 3.96613 24.861 3.96613V0.0869764C23.4227 0.0869764 22.1215 0.400091 20.9914 1.06111C16.1802 3.87915 15.1015 12.6638 17.5842 23.6924C6.93437 27.0323 0 32.3726 0 38.0087C0 43.6622 6.96861 49.0199 17.6527 52.3424C15.1871 63.4058 16.2829 72.2078 21.1113 75.0259C22.2242 75.6869 23.5255 76 24.9637 76C29.6722 76 35.8361 72.5905 42.0685 66.6761C48.3009 72.5557 54.4647 75.9304 59.1733 75.9304C60.6115 75.9304 61.9128 75.6173 63.0428 74.9563C67.8541 72.1382 68.9327 63.3536 66.4501 52.325C77.0656 49.0025 84 43.6448 84 38.0087ZM61.7073 26.406C61.0738 28.65 60.2862 30.9636 59.3958 33.2772C58.6938 31.8856 57.9576 30.4939 57.1529 29.1023C56.3653 27.7107 55.5263 26.3539 54.6873 25.0318C57.1186 25.3971 59.4643 25.8494 61.7073 26.406ZM53.8655 44.932C52.53 47.2804 51.1602 49.507 49.7391 51.577C47.1879 51.8032 44.6025 51.9249 42 51.9249C39.4146 51.9249 36.8292 51.8032 34.2952 51.5944C32.874 49.5244 31.4872 47.3152 30.1516 44.9842C28.8504 42.7054 27.669 40.3918 26.5903 38.0609C27.6519 35.7299 28.8504 33.3989 30.1345 31.1202C31.47 28.7718 32.8398 26.5452 34.2609 24.4752C36.8121 24.249 39.3975 24.1273 42 24.1273C44.5854 24.1273 47.1708 24.249 49.7048 24.4578C51.126 26.5278 52.5128 28.737 53.8484 31.068C55.1496 33.3468 56.331 35.6603 57.4097 37.9913C56.331 40.3223 55.1496 42.6532 53.8655 44.932ZM59.3958 42.6706C60.3204 45.0016 61.108 47.3326 61.7587 49.594C59.5157 50.1506 57.1529 50.6203 54.7044 50.9856C55.5434 49.6461 56.3824 48.2719 57.17 46.8629C57.9576 45.4713 58.6938 44.0623 59.3958 42.6706ZM42.0342 61.2314C40.4419 59.5615 38.8496 57.7002 37.2744 55.6649C38.8153 55.7345 40.3905 55.7867 41.9829 55.7867C43.5923 55.7867 45.1847 55.7519 46.7428 55.6649C45.2018 57.7002 43.6095 59.5615 42.0342 61.2314ZM29.2956 50.9856C26.8642 50.6203 24.5185 50.168 22.2756 49.6114C22.9091 47.3674 23.6967 45.0538 24.587 42.7402C25.289 44.1318 26.0253 45.5235 26.83 46.9151C27.6347 48.3067 28.4566 49.6635 29.2956 50.9856ZM41.9486 14.786C43.541 16.4559 45.1333 18.3172 46.7085 20.3525C45.1675 20.2829 43.5923 20.2307 42 20.2307C40.3905 20.2307 38.7982 20.2655 37.2401 20.3525C38.7811 18.3172 40.3734 16.4559 41.9486 14.786ZM29.2784 25.0318C28.4395 26.3712 27.6005 27.7455 26.8129 29.1545C26.0253 30.5461 25.289 31.9377 24.587 33.3294C23.6625 30.9984 22.8748 28.6674 22.2242 26.406C24.4672 25.8668 26.83 25.3971 29.2784 25.0318ZM13.7831 46.8107C7.72198 44.184 3.80106 40.7398 3.80106 38.0087C3.80106 35.2776 7.72198 31.816 13.7831 29.2067C15.2556 28.5631 16.8651 27.989 18.5259 27.4498C19.5018 30.8592 20.786 34.4079 22.3783 38.0435C20.8031 41.6617 19.5361 45.1929 18.5773 48.585C16.8822 48.0458 15.2727 47.4543 13.7831 46.8107ZM22.9947 71.6686C20.6661 70.3117 19.6559 65.1453 20.4435 58.5003C20.6319 56.8652 20.9401 55.143 21.3168 53.3861C24.6726 54.2211 28.3367 54.8647 32.1892 55.2822C34.5006 58.5003 36.8977 61.4227 39.3119 63.9799C33.7301 69.2506 28.4908 72.1382 24.9295 72.1382C24.159 72.1208 23.5084 71.9643 22.9947 71.6686ZM63.6078 58.4134C64.4126 65.0584 63.4195 70.2248 61.108 71.599C60.5944 71.9121 59.9266 72.0513 59.139 72.0513C55.5948 72.0513 50.3384 69.181 44.7566 63.9451C47.1537 61.388 49.5508 58.4829 51.828 55.2648C55.6975 54.8473 59.3616 54.2037 62.7175 53.3513C63.1113 55.1083 63.4195 56.7956 63.6078 58.4134ZM70.1998 46.8107C68.7273 47.4543 67.1178 48.0284 65.457 48.5676C64.481 45.1582 63.1969 41.6095 61.6046 37.9739C63.1798 34.3557 64.4468 30.8244 65.4056 27.4324C67.1007 27.9716 68.7101 28.5631 70.2169 29.2067C76.278 31.8334 80.1989 35.2776 80.1989 38.0087C80.1818 40.7398 76.2609 44.2014 70.1998 46.8107Z" fill="#61DAFB"/>
<path d="M41.9831 45.9583C46.3046 45.9583 49.8078 42.3991 49.8078 38.0087C49.8078 33.6182 46.3046 30.059 41.9831 30.059C37.6617 30.059 34.1584 33.6182 34.1584 38.0087C34.1584 42.3991 37.6617 45.9583 41.9831 45.9583Z" fill="#61DAFB"/>
</svg>
