<svg width="128" height="114" viewBox="0 0 128 114" fill="none" xmlns="http://www.w3.org/2000/svg">
<g clip-path="url(#clip0)">
<path d="M128 57.0131C128 48.4574 117.381 40.3493 101.101 35.3212C104.858 18.5785 103.188 5.25799 95.8304 0.993326C94.1345 -0.00702649 92.1516 -0.480877 89.9861 -0.480877V5.38962C91.1863 5.38962 92.1516 5.62654 92.9605 6.07407C96.5088 8.12742 98.0481 15.946 96.8479 26.0021C96.561 28.4767 96.0913 31.0829 95.5173 33.7417C90.4036 32.4781 84.8202 31.5041 78.9499 30.8723C75.4276 26.0021 71.775 21.5795 68.0962 17.7098C76.6017 9.73325 84.5854 5.36329 90.0122 5.36329V-0.507202C82.8373 -0.507202 73.4448 4.65251 63.9478 13.603C54.4509 4.70516 45.0583 -0.401901 37.8834 -0.401901V5.46859C43.2841 5.46859 51.2939 9.81223 59.7994 17.7361C56.1468 21.6059 52.4941 26.0021 49.0241 30.8723C43.1276 31.5041 37.5442 32.4781 32.4305 33.768C31.8304 31.1355 31.3869 28.582 31.0738 26.1338C29.8475 16.0776 31.3608 8.25905 34.883 6.17937C35.6657 5.70552 36.6832 5.49492 37.8834 5.49492V-0.375577C35.6918 -0.375577 33.7089 0.0982742 31.987 1.09863C24.6555 5.36329 23.0118 18.6575 26.7949 35.3476C10.5667 40.402 0 48.4838 0 57.0131C0 65.5687 10.6188 73.6769 26.8993 78.705C23.1423 95.4477 24.8121 108.768 32.1696 113.033C33.8655 114.033 35.8484 114.507 38.04 114.507C45.2148 114.507 54.6074 109.347 64.1044 100.397C73.6013 109.295 82.9939 114.402 90.1688 114.402C92.3604 114.402 94.3433 113.928 96.0652 112.928C103.397 108.663 105.04 95.3687 101.257 78.6786C117.433 73.6505 128 65.5424 128 57.0131ZM94.0302 39.4543C93.0648 42.8502 91.8646 46.3514 90.5079 49.8527C89.4382 47.7467 88.3163 45.6407 87.0901 43.5347C85.8899 41.4286 84.6115 39.3753 83.3331 37.3746C87.0379 37.9274 90.6123 38.6119 94.0302 39.4543ZM82.0807 67.4905C80.0457 71.0443 77.9584 74.414 75.7929 77.5467C71.9054 77.8889 67.9658 78.0732 64 78.0732C60.0603 78.0732 56.1207 77.8889 52.2593 77.573C50.0938 74.4403 47.9804 71.097 45.9454 67.5695C43.9625 64.1209 42.1623 60.6196 40.5186 57.0921C42.1362 53.5645 43.9625 50.0369 45.9193 46.5884C47.9543 43.0345 50.0416 39.6649 52.2071 36.5322C56.0946 36.19 60.0342 36.0057 64 36.0057C67.9397 36.0057 71.8793 36.19 75.7407 36.5059C77.9062 39.6385 80.0196 42.9818 82.0546 46.5094C84.0375 49.958 85.8378 53.4592 87.4815 56.9868C85.8378 60.5143 84.0375 64.0419 82.0807 67.4905ZM90.5079 64.0682C91.9168 67.5958 93.117 71.1233 94.1084 74.5456C90.6906 75.388 87.0901 76.0988 83.3592 76.6516C84.6376 74.6246 85.916 72.5449 87.1162 70.4126C88.3164 68.3065 89.4382 66.1742 90.5079 64.0682ZM64.0522 92.1571C61.6258 89.6299 59.1993 86.8131 56.799 83.733C59.1472 83.8383 61.5475 83.9173 63.9739 83.9173C66.4264 83.9173 68.8528 83.8647 71.2271 83.733C68.8789 86.8131 66.4525 89.6299 64.0522 92.1571ZM44.6408 76.6516C40.936 76.0988 37.3616 75.4143 33.9437 74.5719C34.9091 71.176 36.1093 67.6748 37.466 64.1735C38.5357 66.2795 39.6576 68.3855 40.8838 70.4915C42.1101 72.5975 43.3624 74.6509 44.6408 76.6516ZM63.9217 21.8691C66.3482 24.3963 68.7746 27.2131 71.1749 30.2931C68.8267 30.1878 66.4264 30.1089 64 30.1089C61.5475 30.1089 59.1211 30.1615 56.7468 30.2931C59.095 27.2131 61.5214 24.3963 63.9217 21.8691ZM44.6148 37.3746C43.3363 39.4016 42.0579 41.4813 40.8577 43.6136C39.6576 45.7196 38.5357 47.8256 37.466 49.9316C36.0571 46.4041 34.8569 42.8765 33.8655 39.4543C37.2833 38.6382 40.8838 37.9274 44.6148 37.3746ZM21.0029 70.3336C11.7668 66.3585 5.79209 61.1461 5.79209 57.0131C5.79209 52.8801 11.7668 47.6414 21.0029 43.6926C23.2466 42.7186 25.6991 41.8498 28.2299 41.0338C29.7171 46.1935 31.6739 51.5638 34.1003 57.0657C31.7 62.5414 29.7693 67.8853 28.3082 73.0187C25.7252 72.2027 23.2727 71.3076 21.0029 70.3336ZM35.0395 107.952C31.4912 105.899 29.9519 98.0802 31.1521 88.024C31.4391 85.5495 31.9087 82.9433 32.4827 80.2845C37.5964 81.5481 43.1798 82.5221 49.0501 83.1539C52.5724 88.024 56.225 92.4466 59.9038 96.3164C51.3983 104.293 43.4146 108.663 37.9878 108.663C36.8137 108.637 35.8223 108.4 35.0395 107.952ZM96.9262 87.8924C98.1525 97.9486 96.6392 105.767 93.117 107.847C92.3343 108.321 91.3167 108.531 90.1166 108.531C84.7159 108.531 76.7061 104.188 68.2006 96.2638C71.8532 92.394 75.5059 87.9977 78.976 83.1276C84.8724 82.4958 90.4558 81.5217 95.5695 80.2318C96.1696 82.8906 96.6392 85.4442 96.9262 87.8924ZM106.971 70.3336C104.727 71.3076 102.275 72.1763 99.744 72.9924C98.2568 67.8327 96.3 62.4624 93.8736 56.9604C96.2739 51.4848 98.2047 46.1408 99.6657 41.0074C102.249 41.8235 104.701 42.7186 106.997 43.6926C116.233 47.6677 122.208 52.8801 122.208 57.0131C122.182 61.1461 116.207 66.3848 106.971 70.3336Z" fill="#61DAFB"/>
<path d="M63.9741 69.0437C70.5592 69.0437 75.8975 63.6574 75.8975 57.0131C75.8975 50.3688 70.5592 44.9825 63.9741 44.9825C57.389 44.9825 52.0508 50.3688 52.0508 57.0131C52.0508 63.6574 57.389 69.0437 63.9741 69.0437Z" fill="#61DAFB"/>
</g>
<defs>
<clipPath id="clip0">
<rect width="128" height="114" fill="white"/>
</clipPath>
</defs>
</svg>
