<svg width="90" height="76" viewBox="0 0 90 76" fill="none" xmlns="http://www.w3.org/2000/svg">
<rect width="76" height="76" rx="4" fill="#E8EFFD"/>
<path d="M58.1313 12.4364H25.3139C24.8304 12.4364 24.3666 12.6314 24.0247 12.9784C23.6828 13.3255 23.4907 13.7962 23.4907 14.2871V25.3909C23.4907 25.8818 23.6828 26.3525 24.0247 26.6996C24.3666 27.0466 24.8304 27.2416 25.3139 27.2416H28.9603C29.4438 27.2416 29.9076 27.0466 30.2495 26.6996C30.5914 26.3525 30.7835 25.8818 30.7835 25.3909V21.6896H37.1646V56.852H32.6067C32.1231 56.852 31.6594 57.047 31.3175 57.394C30.9756 57.7411 30.7835 58.2118 30.7835 58.7026V62.4039C30.7835 62.8948 30.9756 63.3655 31.3175 63.7125C31.6594 64.0596 32.1231 64.2546 32.6067 64.2546H50.8385C51.322 64.2546 51.7858 64.0596 52.1277 63.7125C52.4696 63.3655 52.6617 62.8948 52.6617 62.4039V58.7026C52.6617 58.2118 52.4696 57.7411 52.1277 57.394C51.7858 57.047 51.322 56.852 50.8385 56.852H46.2805V21.6896H52.6617V25.3909C52.6617 25.8818 52.8538 26.3525 53.1957 26.6996C53.5376 27.0466 54.0013 27.2416 54.4849 27.2416H58.1313C58.6148 27.2416 59.0785 27.0466 59.4204 26.6996C59.7624 26.3525 59.9544 25.8818 59.9544 25.3909V14.2871C59.9544 13.7962 59.7624 13.3255 59.4204 12.9784C59.0785 12.6314 58.6148 12.4364 58.1313 12.4364V12.4364ZM87.3022 51.3H81.8327V25.3909H87.3022C88.9328 25.3909 89.7328 23.3888 88.591 22.2321L79.4751 12.9789C79.1332 12.6321 78.6696 12.4373 78.1863 12.4373C77.703 12.4373 77.2394 12.6321 76.8975 12.9789L67.7816 22.2321C66.7185 23.309 67.2882 25.3909 69.0704 25.3909H74.5399V51.3H69.0704C67.4398 51.3 66.641 53.3022 67.7816 54.4589L76.8975 63.7121C77.2394 64.0589 77.703 64.2537 78.1863 64.2537C78.6696 64.2537 79.1332 64.0589 79.4751 63.7121L88.591 54.4589C89.6541 53.382 89.0844 51.3 87.3022 51.3Z" fill="#5B98F0"/>
</svg>
