<svg width="129" height="110" viewBox="0 0 129 110" fill="none" xmlns="http://www.w3.org/2000/svg">
<rect x="0.000244141" width="110" height="110" rx="4" fill="#E8EFFD"/>
<path d="M84.1379 18H36.6391C35.9392 18 35.268 18.2822 34.7731 18.7845C34.2783 19.2869 34.0002 19.9682 34.0002 20.6786V36.75C34.0002 37.4604 34.2783 38.1417 34.7731 38.644C35.268 39.1464 35.9392 39.4286 36.6391 39.4286H41.9167C42.6166 39.4286 43.2878 39.1464 43.7826 38.644C44.2775 38.1417 44.5555 37.4604 44.5555 36.75V31.3929H53.7914V82.2857H47.1944C46.4945 82.2857 45.8233 82.5679 45.3284 83.0703C44.8335 83.5726 44.5555 84.2539 44.5555 84.9643V90.3214C44.5555 91.0318 44.8335 91.7131 45.3284 92.2155C45.8233 92.7178 46.4945 93 47.1944 93H73.5826C74.2824 93 74.9536 92.7178 75.4485 92.2155C75.9434 91.7131 76.2214 91.0318 76.2214 90.3214V84.9643C76.2214 84.2539 75.9434 83.5726 75.4485 83.0703C74.9536 82.5679 74.2824 82.2857 73.5826 82.2857H66.9855V31.3929H76.2214V36.75C76.2214 37.4604 76.4994 38.1417 76.9943 38.644C77.4892 39.1464 78.1604 39.4286 78.8602 39.4286H84.1379C84.8377 39.4286 85.5089 39.1464 86.0038 38.644C86.4987 38.1417 86.7767 37.4604 86.7767 36.75V20.6786C86.7767 19.9682 86.4987 19.2869 86.0038 18.7845C85.5089 18.2822 84.8377 18 84.1379 18ZM126.359 74.25H118.443V36.75H126.359C128.719 36.75 129.877 33.8521 128.224 32.178L115.03 18.7852C114.535 18.2832 113.864 18.0012 113.165 18.0012C112.465 18.0012 111.794 18.2832 111.3 18.7852L98.1055 32.178C96.5667 33.7366 97.3913 36.75 99.9708 36.75H107.887V74.25H99.9708C97.6107 74.25 96.4546 77.1479 98.1055 78.822L111.3 92.2148C111.794 92.7168 112.465 92.9988 113.165 92.9988C113.864 92.9988 114.535 92.7168 115.03 92.2148L128.224 78.822C129.763 77.2634 128.938 74.25 126.359 74.25Z" fill="#5B98F0"/>
</svg>
