<svg width="20" height="13" viewBox="0 0 20 13" fill="none" xmlns="http://www.w3.org/2000/svg">
<path d="M20 0H0V13H20V0Z" fill="#F0F0F0"/>
<path d="M20 1.62482H0V3.24966H20V1.62482Z" fill="#D80027"/>
<path d="M20 4.875H0V6.49984H20V4.875Z" fill="#D80027"/>
<path d="M20 8.12466H0V9.74951H20V8.12466Z" fill="#D80027"/>
<path d="M20 11.3748H0V12.9996H20V11.3748Z" fill="#D80027"/>
<path d="M10 0H0V7.00001H10V0Z" fill="#2E52B2"/>
<path d="M3.89928 2.86758L3.73822 3.35066H3.21729L3.63881 3.64906L3.47775 4.1321L3.89928 3.8337L4.32053 4.1321L4.15951 3.64906L4.58104 3.35066H4.06006L3.89928 2.86758Z" fill="#F0F0F0"/>
<path d="M4.06006 5.09397L3.89928 4.61093L3.73822 5.09397H3.21729L3.63881 5.39241L3.47775 5.87545L3.89928 5.57701L4.32053 5.87545L4.15951 5.39241L4.58104 5.09397H4.06006Z" fill="#F0F0F0"/>
<path d="M1.85844 5.09397L1.69762 4.61093L1.53656 5.09397H1.01562L1.43715 5.39241L1.27609 5.87545L1.69762 5.57701L2.11891 5.87545L1.95789 5.39241L2.37934 5.09397H1.85844Z" fill="#F0F0F0"/>
<path d="M1.69762 2.86758L1.53656 3.35066H1.01562L1.43715 3.64906L1.27609 4.1321L1.69762 3.8337L2.11891 4.1321L1.95789 3.64906L2.37934 3.35066H1.85844L1.69762 2.86758Z" fill="#F0F0F0"/>
<path d="M3.89928 1.12424L3.73822 1.60735H3.21729L3.63881 1.90579L3.47775 2.38883L3.89928 2.09039L4.32053 2.38883L4.15951 1.90579L4.58104 1.60735H4.06006L3.89928 1.12424Z" fill="#F0F0F0"/>
<path d="M1.69762 1.12479L1.53656 1.6079H1.01562L1.43715 1.90634L1.27609 2.38938L1.69762 2.09094L2.11891 2.38938L1.95789 1.90634L2.37934 1.6079H1.85844L1.69762 1.12479Z" fill="#F0F0F0"/>
<path d="M6.1009 2.86758L5.93988 3.35066H5.41895L5.84043 3.64906L5.67945 4.1321L6.1009 3.8337L6.52223 4.1321L6.36117 3.64906L6.78269 3.35066H6.26176L6.1009 2.86758Z" fill="#F0F0F0"/>
<path d="M6.26176 5.09397L6.1009 4.61093L5.93988 5.09397H5.41895L5.84043 5.39241L5.67945 5.87545L6.1009 5.57701L6.52223 5.87545L6.36117 5.39241L6.78269 5.09397H6.26176Z" fill="#F0F0F0"/>
<path d="M8.46338 5.09397L8.30256 4.61093L8.1415 5.09397H7.62061L8.04205 5.39241L7.88104 5.87545L8.30256 5.57701L8.72385 5.87545L8.56279 5.39241L8.98432 5.09397H8.46338Z" fill="#F0F0F0"/>
<path d="M8.30256 2.86758L8.1415 3.35066H7.62061L8.04205 3.64906L7.88104 4.1321L8.30256 3.8337L8.72385 4.1321L8.56279 3.64906L8.98432 3.35066H8.46338L8.30256 2.86758Z" fill="#F0F0F0"/>
<path d="M6.1009 1.12424L5.93988 1.60735H5.41895L5.84043 1.90579L5.67945 2.38883L6.1009 2.09039L6.52223 2.38883L6.36117 1.90579L6.78269 1.60735H6.26176L6.1009 1.12424Z" fill="#F0F0F0"/>
<path d="M8.30256 1.12424L8.1415 1.60735H7.62061L8.04205 1.90579L7.88104 2.38883L8.30256 2.09039L8.72385 2.38883L8.56279 1.90579L8.98432 1.60735H8.46338L8.30256 1.12424Z" fill="#F0F0F0"/>
</svg>
