<svg width="22" height="24" viewBox="0 0 22 24" fill="none" xmlns="http://www.w3.org/2000/svg">
<path d="M11 12C14.2812 12 17 9.32812 17 6C17 2.71875 14.2812 0 11 0C7.67188 0 5 2.71875 5 6C5 9.32812 7.67188 12 11 12ZM15.1719 13.5H14.375C13.3438 14.0156 12.2188 14.25 11 14.25C9.78125 14.25 8.60938 14.0156 7.57812 13.5H6.78125C3.3125 13.5 0.5 16.3594 0.5 19.8281V21.75C0.5 23.0156 1.48438 24 2.75 24H19.25C20.4688 24 21.5 23.0156 21.5 21.75V19.8281C21.5 16.3594 18.6406 13.5 15.1719 13.5Z" fill="#004DBB"/>
</svg>
