<svg width="90" height="76" viewBox="0 0 90 76" fill="none" xmlns="http://www.w3.org/2000/svg">
<rect width="76" height="76" rx="4" fill="#E8EFFD"/>
<path d="M85.4566 20.6285V16.2857H88.1824C89.0856 16.2857 89.8179 15.5565 89.8179 14.6571V9.22855C89.8179 8.32917 89.0856 7.59998 88.1824 7.59998H82.7307C81.8275 7.59998 81.0952 8.32917 81.0952 9.22855V11.9428H28.7589V9.22855C28.7589 8.32917 28.0266 7.59998 27.1233 7.59998H21.6716C20.7684 7.59998 20.0361 8.32917 20.0361 9.22855V14.6571C20.0361 15.5565 20.7684 16.2857 21.6716 16.2857H24.3975V59.7143H21.6716C20.7684 59.7143 20.0361 60.4435 20.0361 61.3428V66.7714C20.0361 67.6708 20.7684 68.4 21.6716 68.4H27.1233C28.0266 68.4 28.7589 67.6708 28.7589 66.7714V64.0571H81.0952V66.7714C81.0952 67.6708 81.8275 68.4 82.7307 68.4H88.1824C89.0856 68.4 89.8179 67.6708 89.8179 66.7714V61.3428C89.8179 60.4435 89.0856 59.7143 88.1824 59.7143H85.4566V20.6285ZM33.1202 40.7143V22.2571C33.1202 21.3577 33.8525 20.6285 34.7557 20.6285H57.6529C58.5561 20.6285 59.2884 21.3577 59.2884 22.2571V40.7143C59.2884 41.6136 58.5561 42.3428 57.6529 42.3428H34.7557C33.8525 42.3428 33.1202 41.6136 33.1202 40.7143ZM76.7339 53.7428C76.7339 54.6422 76.0016 55.3714 75.0983 55.3714H52.2012C51.298 55.3714 50.5657 54.6422 50.5657 53.7428V46.6857H60.3787C62.1853 46.6857 63.6498 45.2274 63.6498 43.4285V33.6571H75.0983C76.0016 33.6571 76.7339 34.3863 76.7339 35.2857V53.7428Z" fill="#5B98F0"/>
</svg>
