<svg width="130" height="110" viewBox="0 0 130 110" fill="none" xmlns="http://www.w3.org/2000/svg">
<rect width="110" height="110" rx="4" fill="#E8EFFD"/>
<path d="M123.688 29.8571V23.5714H127.633C128.94 23.5714 130 22.516 130 21.2143V13.3571C130 12.0554 128.94 11 127.633 11H119.742C118.435 11 117.375 12.0554 117.375 13.3571V17.2857H41.625V13.3571C41.625 12.0554 40.5651 11 39.2578 11H31.3672C30.0599 11 29 12.0554 29 13.3571V21.2143C29 22.516 30.0599 23.5714 31.3672 23.5714H35.3125V86.4286H31.3672C30.0599 86.4286 29 87.484 29 88.7857V96.6429C29 97.9446 30.0599 99 31.3672 99H39.2578C40.5651 99 41.625 97.9446 41.625 96.6429V92.7143H117.375V96.6429C117.375 97.9446 118.435 99 119.742 99H127.633C128.94 99 130 97.9446 130 96.6429V88.7857C130 87.484 128.94 86.4286 127.633 86.4286H123.688V29.8571ZM47.9375 58.9286V32.2143C47.9375 30.9126 48.9974 29.8571 50.3047 29.8571H83.4453C84.7526 29.8571 85.8125 30.9126 85.8125 32.2143V58.9286C85.8125 60.2303 84.7526 61.2857 83.4453 61.2857H50.3047C48.9974 61.2857 47.9375 60.2303 47.9375 58.9286ZM111.062 77.7857C111.062 79.0874 110.003 80.1429 108.695 80.1429H75.5547C74.2474 80.1429 73.1875 79.0874 73.1875 77.7857V67.5714H87.3906C90.0054 67.5714 92.125 65.4608 92.125 62.8571V48.7143H108.695C110.003 48.7143 111.062 49.7697 111.062 51.0714V77.7857Z" fill="#5B98F0"/>
</svg>
