<svg width="196" height="110" viewBox="0 0 196 110" fill="none" xmlns="http://www.w3.org/2000/svg">
<g style="mix-blend-mode:multiply">
<path d="M54.8515 110C85.1451 110 109.703 85.3757 109.703 55C109.703 24.6243 85.1451 0 54.8515 0C24.5578 0 0 24.6243 0 55C0 85.3757 24.5578 110 54.8515 110Z" fill="#EB5E03"/>
</g>
<g style="mix-blend-mode:multiply">
<path d="M141.149 110C171.442 110 196 85.3757 196 55C196 24.6243 171.442 0 141.149 0C110.855 0 86.2974 24.6243 86.2974 55C86.2974 85.3757 110.855 110 141.149 110Z" fill="#FFCF00"/>
</g>
<path fill-rule="evenodd" clip-rule="evenodd" d="M54.1207 62.1411C54.1207 64.0954 53.9222 65.9231 53.5251 67.6241C53.1281 69.3251 52.4784 70.8179 51.5761 72.1027C50.6737 73.3875 49.4917 74.4009 48.0299 75.1428C46.5681 75.8847 44.7725 76.2557 42.6429 76.2557C40.5134 76.2557 38.7358 75.8847 37.3101 75.1428C35.8844 74.4009 34.7204 73.3875 33.8181 72.1027C32.9157 70.8179 32.2751 69.3251 31.8961 67.6241C31.5171 65.9231 31.3276 64.0954 31.3276 62.1411V36.8977H36.2003V61.6525C36.2003 62.9554 36.2995 64.213 36.498 65.4254C36.6965 66.6379 37.0394 67.7145 37.5267 68.6555C38.014 69.5965 38.6817 70.3474 39.5299 70.9084C40.3781 71.4694 41.4519 71.7499 42.7512 71.7499C44.0506 71.7499 45.1153 71.4694 45.9455 70.9084C46.7757 70.3474 47.4344 69.5965 47.9216 68.6555C48.4089 67.7145 48.7518 66.6379 48.9503 65.4254C49.1488 64.213 49.2481 62.9554 49.2481 61.6525V36.8977H54.1207V62.1411ZM69.5949 51.2294L75.8752 36.8977H80.9103L72.1937 55.0838L81.9389 75.3328H76.6332L69.4325 59.1553L62.2319 75.3328H57.0886L66.7797 55.0295L58.0631 36.8977H63.2064L69.5949 51.2294Z" fill="white"/>
<path fill-rule="evenodd" clip-rule="evenodd" d="M146.289 62.1411C146.289 64.0954 146.091 65.9231 145.694 67.6241C145.297 69.3251 144.647 70.8179 143.745 72.1027C142.842 73.3875 141.66 74.4009 140.198 75.1428C138.737 75.8847 136.941 76.2557 134.811 76.2557C132.682 76.2557 130.904 75.8847 129.479 75.1428C128.053 74.4009 126.889 73.3875 125.987 72.1027C125.084 70.8179 124.444 69.3251 124.065 67.6241C123.686 65.9231 123.496 64.0954 123.496 62.1411V36.8977H128.369V61.6525C128.369 62.9554 128.468 64.213 128.666 65.4254C128.865 66.6379 129.208 67.7145 129.695 68.6555C130.182 69.5965 130.85 70.3474 131.698 70.9084C132.547 71.4694 133.62 71.7499 134.92 71.7499C136.219 71.7499 137.284 71.4694 138.114 70.9084C138.944 70.3474 139.603 69.5965 140.09 68.6555C140.577 67.7145 140.92 66.6379 141.119 65.4254C141.317 64.213 141.417 62.9554 141.417 61.6525V36.8977H146.289V62.1411ZM153.209 75.3328V36.8977H158.082V75.3328H153.209Z" fill="black"/>
</svg>
