<svg width="136" height="76" viewBox="0 0 136 76" fill="none" xmlns="http://www.w3.org/2000/svg">
<g style="mix-blend-mode:multiply">
<path d="M38.0602 76C59.0802 76 76.1203 58.9868 76.1203 38C76.1203 17.0132 59.0802 0 38.0602 0C17.0401 0 0 17.0132 0 38C0 58.9868 17.0401 76 38.0602 76Z" fill="#EB5E03"/>
</g>
<g style="mix-blend-mode:multiply">
<path d="M97.9398 76C118.96 76 136 58.9868 136 38C136 17.0132 118.96 0 97.9398 0C76.9198 0 59.8796 17.0132 59.8796 38C59.8796 58.9868 76.9198 76 97.9398 76Z" fill="#FFCF00"/>
</g>
<path fill-rule="evenodd" clip-rule="evenodd" d="M37.5529 42.9338C37.5529 44.2841 37.4151 45.5468 37.1396 46.722C36.8642 47.8973 36.4134 48.9287 35.7872 49.8164C35.1611 50.7041 34.3409 51.4042 33.3266 51.9168C32.3123 52.4294 31.0664 52.6857 29.5887 52.6857C28.1111 52.6857 26.8777 52.4294 25.8884 51.9168C24.8992 51.4042 24.0915 50.7041 23.4654 49.8164C22.8393 48.9287 22.3947 47.8973 22.1318 46.722C21.8688 45.5468 21.7373 44.2841 21.7373 42.9338V25.4929H25.1183V42.5962C25.1183 43.4964 25.1872 44.3653 25.3249 45.203C25.4627 46.0407 25.7006 46.7845 26.0387 47.4347C26.3768 48.0848 26.8401 48.6037 27.4287 48.9912C28.0172 49.3788 28.7623 49.5726 29.6639 49.5726C30.5655 49.5726 31.3043 49.3788 31.8803 48.9912C32.4563 48.6037 32.9134 48.0848 33.2515 47.4347C33.5896 46.7845 33.8275 46.0407 33.9653 45.203C34.103 44.3653 34.1719 43.4964 34.1719 42.5962V25.4929H37.5529V42.9338ZM48.2901 35.3948L52.6479 25.4929H56.1415L50.0933 38.0579L56.8553 52.0481H53.1738L48.1774 40.8709L43.181 52.0481H39.6122L46.3366 38.0203L40.2884 25.4929H43.8572L48.2901 35.3948Z" fill="white"/>
<path fill-rule="evenodd" clip-rule="evenodd" d="M101.507 42.9338C101.507 44.2841 101.369 45.5468 101.094 46.722C100.818 47.8973 100.367 48.9287 99.7412 49.8164C99.1151 50.7041 98.2949 51.4042 97.2806 51.9168C96.2663 52.4294 95.0203 52.6857 93.5427 52.6857C92.0651 52.6857 90.8317 52.4294 89.8424 51.9168C88.8531 51.4042 88.0455 50.7041 87.4194 49.8164C86.7932 48.9287 86.3487 47.8973 86.0857 46.722C85.8228 45.5468 85.6913 44.2841 85.6913 42.9338V25.4929H89.0723V42.5962C89.0723 43.4964 89.1412 44.3653 89.2789 45.203C89.4167 46.0407 89.6546 46.7845 89.9927 47.4347C90.3308 48.0848 90.7941 48.6037 91.3826 48.9912C91.9712 49.3788 92.7162 49.5726 93.6178 49.5726C94.5195 49.5726 95.2583 49.3788 95.8343 48.9912C96.4103 48.6037 96.8674 48.0848 97.2055 47.4347C97.5436 46.7845 97.7815 46.0407 97.9192 45.203C98.057 44.3653 98.1258 43.4964 98.1258 42.5962V25.4929H101.507V42.9338ZM106.309 52.0481V25.4929H109.69V52.0481H106.309Z" fill="black"/>
</svg>
