<svg width="22" height="22" viewBox="0 0 22 22" fill="none" xmlns="http://www.w3.org/2000/svg">
<path d="M11 4.76562C7.57812 4.76562 4.8125 7.53125 4.8125 10.9531C4.8125 12.125 5.14062 13.25 5.75 14.2344L5.89062 14.4688L5.28125 16.7656L7.625 16.1562L7.8125 16.2969C8.79688 16.8594 9.875 17.1406 10.9531 17.1406H11C14.375 17.1406 17.2344 14.375 17.2344 10.9531C17.2344 9.3125 16.5312 7.76562 15.3594 6.59375C14.1875 5.42188 12.6406 4.76562 11 4.76562ZM14.6094 13.625C14.4688 14.0469 13.7188 14.4219 13.3438 14.4688C12.7812 14.5625 12.3125 14.5156 11.1406 14.0469C9.26562 13.2031 8.04688 11.3281 7.95312 11.2344C7.85938 11.0938 7.20312 10.2031 7.20312 9.3125C7.20312 8.375 7.67188 7.95312 7.85938 7.76562C8 7.57812 8.23438 7.53125 8.32812 7.53125C8.46875 7.53125 8.60938 7.53125 8.70312 7.53125C8.79688 7.53125 8.98438 7.48438 9.125 7.85938C9.26562 8.1875 9.64062 9.125 9.6875 9.21875C9.73438 9.3125 9.78125 9.40625 9.6875 9.54688C9.35938 10.25 8.98438 10.2031 9.17188 10.5312C9.875 11.7969 10.5781 12.2188 11.7031 12.7812C11.8906 12.875 11.9844 12.8281 12.0781 12.7344C12.2188 12.5938 12.5469 12.1719 12.6875 11.9844C12.7812 11.7969 12.9219 11.8438 13.1094 11.8906C13.25 11.9375 14.1875 12.4062 14.375 12.5C14.5625 12.5938 14.6562 12.6406 14.7031 12.7344C14.75 12.7812 14.75 13.1562 14.6094 13.625ZM19.25 0.5H2.75C1.48438 0.5 0.5 1.53125 0.5 2.75V19.25C0.5 20.5156 1.48438 21.5 2.75 21.5H19.25C20.4688 21.5 21.5 20.5156 21.5 19.25V2.75C21.5 1.53125 20.4688 0.5 19.25 0.5ZM10.9531 18.4062C9.73438 18.4062 8.51562 18.0781 7.4375 17.4688L3.5 18.5L4.53125 14.6562C3.875 13.5312 3.54688 12.2656 3.54688 10.9531C3.54688 6.875 6.875 3.5 10.9531 3.5C12.9688 3.5 14.8438 4.29688 16.25 5.70312C17.6562 7.10938 18.5 8.98438 18.5 10.9531C18.5 15.0781 15.0781 18.4062 10.9531 18.4062Z" fill="#004DBB"/>
</svg>
