<svg width="115" height="114" viewBox="0 0 115 114" fill="none" xmlns="http://www.w3.org/2000/svg">
<path fill-rule="evenodd" clip-rule="evenodd" d="M0 56.9981C0 25.5691 25.5711 0 57.0001 0C88.4282 0 114.002 25.5691 114.003 56.9981C114.003 88.4318 88.4282 114 57.0001 114C25.5701 114 0 88.4309 0 56.9981ZM2.61358 56.9981C2.61358 86.9878 27.0123 111.386 57.0001 111.386C86.9861 111.386 111.384 86.9878 111.384 56.9981C111.384 27.0113 86.987 2.61451 57.0001 2.61451C27.0114 2.61451 2.61358 27.0113 2.61358 56.9981ZM8.10231 56.9982C8.10231 76.3539 19.3503 93.0793 35.6608 101.007L12.3358 37.0981C9.53963 43.3595 8.09702 50.1408 8.10231 56.9982ZM90.01 54.5307C90.01 48.4875 87.8393 44.3024 85.9775 41.045C85.7865 40.7346 85.5964 40.4278 85.4082 40.1241L85.4079 40.1237C83.1545 36.4875 81.1765 33.2956 81.1765 29.5784C81.1765 25.0835 84.5847 20.8993 89.3867 20.8993C89.5263 20.8993 89.6612 20.9105 89.7963 20.9217C89.871 20.9279 89.9457 20.9341 90.0212 20.9384C81.3207 12.9683 69.7304 8.10217 57.0002 8.10217C39.9175 8.10217 24.8882 16.8668 16.145 30.1422C17.2922 30.1766 18.3743 30.1999 19.2917 30.1999C24.4063 30.1999 32.3233 29.5793 32.3233 29.5793C34.9592 29.4239 35.27 33.2954 32.6378 33.6071C32.6378 33.6071 29.9879 33.9188 27.0403 34.0733L44.8469 87.038L55.5487 54.9447L47.9294 34.0723C45.2963 33.9179 42.8018 33.6062 42.8018 33.6062C40.1668 33.4518 40.4757 29.423 43.1107 29.5784C43.1107 29.5784 51.1859 30.199 55.9907 30.199C61.1043 30.199 69.0223 29.5784 69.0223 29.5784C71.6601 29.423 71.9699 33.2945 69.3359 33.6062C69.3359 33.6062 66.6813 33.9179 63.7393 34.0723L81.4101 86.6361L86.2865 70.3377C86.4137 69.9308 86.5391 69.5307 86.6625 69.1373L86.6693 69.1155L86.6693 69.1154C88.5925 62.9815 90.01 58.4601 90.01 54.5307ZM57.8581 61.2755L43.187 103.906C47.6723 105.228 52.3242 105.899 57.0002 105.899C62.6944 105.899 68.1551 104.914 73.2381 103.127C73.1017 102.914 72.9853 102.688 72.8901 102.454L57.8581 61.2755ZM99.9061 33.5383C100.116 35.0959 100.236 36.7688 100.236 38.5664C100.236 43.5284 99.3088 49.1063 96.5175 56.0809L81.5813 99.2651C96.1183 90.7879 105.896 75.0384 105.896 56.9983C105.909 48.7983 103.849 40.7282 99.9061 33.5383Z" fill="#00749A"/>
</svg>
