<svg width="77" height="76" viewBox="0 0 77 76" fill="none" xmlns="http://www.w3.org/2000/svg">
<path fill-rule="evenodd" clip-rule="evenodd" d="M0 37.9988C0 17.0461 17.0474 0 38.0001 0C58.9521 0 76.0014 17.0461 76.002 37.9988C76.002 58.9545 58.9521 76 38.0001 76C17.0467 76 0 58.9539 0 37.9988ZM1.74239 37.9988C1.74239 57.9918 18.0082 74.2576 38.0001 74.2576C57.9907 74.2576 74.2559 57.9918 74.2559 37.9988C74.2559 18.0075 57.9913 1.74301 38.0001 1.74301C18.0076 1.74301 1.74239 18.0075 1.74239 37.9988ZM5.40154 37.9988C5.40154 50.9026 12.9002 62.0529 23.7738 67.3377L8.22385 24.7321C6.35976 28.9064 5.39801 33.4272 5.40154 37.9988ZM60.0067 36.3538C60.0067 32.325 58.5596 29.535 57.3184 27.3633C57.191 27.1564 57.0643 26.9519 56.9388 26.7495L56.9386 26.7491C55.4364 24.325 54.1177 22.1971 54.1177 19.7189C54.1177 16.7223 56.3898 13.9329 59.5911 13.9329C59.6842 13.9329 59.7741 13.9403 59.8642 13.9478L59.8642 13.9478C59.914 13.9519 59.9638 13.9561 60.0141 13.9589C54.2138 8.64555 46.4869 5.40145 38.0001 5.40145C26.6117 5.40145 16.5921 11.2446 10.7633 20.0948C11.5281 20.1178 12.2495 20.1333 12.8611 20.1333C16.2708 20.1333 21.5489 19.7195 21.5489 19.7195C23.3061 19.6159 23.5133 22.197 21.7585 22.4048C21.7585 22.4048 19.9919 22.6126 18.0269 22.7155L29.8979 58.0254L37.0325 36.6298L31.9529 22.7149C30.1975 22.6119 28.5345 22.4041 28.5345 22.4041C26.7779 22.3012 26.9838 19.6153 28.7405 19.7189C28.7405 19.7189 34.124 20.1326 37.3271 20.1326C40.7362 20.1326 46.0149 19.7189 46.0149 19.7189C47.7734 19.6153 47.9799 22.1963 46.2239 22.4041C46.2239 22.4041 44.4542 22.6119 42.4929 22.7149L54.2734 57.7574L57.5243 46.8918C57.6107 46.6155 57.6958 46.344 57.7795 46.077C59.0616 41.9877 60.0067 38.9734 60.0067 36.3538ZM38.572 40.8503L28.7913 69.2707C31.7816 70.152 34.8828 70.5994 38.0001 70.5994C41.7963 70.5994 45.4368 69.9425 48.8254 68.7515C48.7345 68.6092 48.6568 68.4589 48.5934 68.3024L38.572 40.8503ZM66.6041 22.3589C66.7443 23.3973 66.8237 24.5125 66.8237 25.7109C66.8237 29.0189 66.2059 32.7376 64.345 37.3872L54.3875 66.1767C64.0789 60.5253 70.5975 50.0256 70.5975 37.9988C70.6062 32.5322 69.2325 27.1522 66.6041 22.3589Z" fill="#00749A"/>
</svg>
